<svg width="164" height="44" viewBox="0 0 164 44" fill="none" xmlns="http://www.w3.org/2000/svg">
<path d="M35.3997 43.548H8.58142C4.17427 43.548 0.602539 39.9763 0.602539 35.5691V8.75086C0.602539 4.34371 4.17427 0.771973 8.58142 0.771973H35.3997C39.8068 0.771973 43.3786 4.34371 43.3786 8.75086V35.5691C43.3786 39.9763 39.8068 43.548 35.3997 43.548Z" fill="#292F36"/>
<path d="M29.6972 22.5535C30.46 23.51 30.8474 24.6239 30.8474 25.8831C30.8474 27.7356 30.2299 29.1885 28.995 30.2176C27.76 31.2467 25.9923 31.7795 23.6918 31.7795H13.6426V10.1675H23.4497C25.6533 10.1675 27.3483 10.6518 28.547 11.6083C29.7456 12.5648 30.351 13.9329 30.351 15.7006C30.351 17.0083 29.9999 18.0858 29.3098 18.9576C28.6196 19.8293 27.7116 20.3863 26.5856 20.6526C27.9053 20.9674 28.9344 21.597 29.6972 22.5535ZM18.8609 19.006H22.2874C24.1035 19.006 25.0116 18.2311 25.0116 16.6814C25.0116 15.1316 24.0793 14.3567 22.2268 14.3567H18.8609V19.006ZM25.4959 25.1567C25.4959 24.3818 25.2416 23.7764 24.7331 23.3405C24.2246 22.9046 23.4981 22.6867 22.5658 22.6867H18.873V27.5418H22.6022C24.5273 27.5297 25.4959 26.7427 25.4959 25.1567Z" fill="white"/>
<path d="M68.1628 31.78L63.4893 23.6195H62.3027V31.78H57.0723V10.168H65.9955C67.7027 10.168 69.1556 10.4586 70.3301 11.0518C71.5166 11.6451 72.4004 12.4563 72.9937 13.4854C73.587 14.5146 73.8776 15.689 73.8776 17.0209C73.8776 18.5948 73.4417 19.9267 72.5821 21.0285C71.7103 22.1302 70.4632 22.8809 68.8045 23.2926L73.9381 31.7921H68.1628V31.78ZM62.3027 20.0477H65.5354C66.5767 20.0477 67.3395 19.8177 67.8238 19.3576C68.3081 18.8975 68.5623 18.2195 68.5623 17.3235C68.5623 16.4639 68.3081 15.798 67.8117 15.3016C67.3153 14.8173 66.5525 14.563 65.5354 14.563H62.3027V20.0477Z" fill="#292F36"/>
<path d="M97.5357 27.845H89.4358L88.0918 31.7921H82.595L90.5133 10.3375H96.5308L104.449 31.7921H98.8918L97.5357 27.845ZM96.1918 23.8616L93.5039 15.9191L90.7797 23.8616H96.1918Z" fill="#292F36"/>
<path d="M133.301 31.78H128.071L119.329 18.5101V31.78H114.099V10.168H119.329L128.071 23.559V10.168H133.301V31.78Z" fill="#292F36"/>
<path d="M162.626 26.5738C161.718 28.2083 160.41 29.4917 158.715 30.4118C157.008 31.332 155.01 31.7921 152.71 31.7921H144.549V10.1801H152.71C155.035 10.1801 157.044 10.6281 158.727 11.524C160.422 12.42 161.718 13.6792 162.626 15.3137C163.534 16.9482 163.982 18.8128 163.982 20.9437C163.982 23.0504 163.522 24.9271 162.626 26.5738ZM156.996 25.4841C158.122 24.4065 158.691 22.8809 158.691 20.9316C158.691 18.9702 158.122 17.4568 156.996 16.3792C155.87 15.3016 154.284 14.7568 152.238 14.7568H149.768V27.1065H152.238C154.284 27.1065 155.87 26.5737 156.996 25.4841Z" fill="#292F36"/>
</svg>
