<svg width="118" height="48" viewBox="0 0 118 48" fill="none" xmlns="http://www.w3.org/2000/svg">
<path d="M0.683105 29.7843V0.578613H17.8839V29.77H0.683105V29.7843ZM15.7999 22.9896L16.2424 19.7636L14.6436 19.6066L14.1583 22.0903C13.1591 22.5899 11.9314 22.8326 10.4612 22.8326C8.46274 22.8326 6.87825 22.2045 5.72201 20.9341C4.5515 19.6637 3.98052 17.9935 3.98052 15.9095C3.98052 13.8825 4.5515 12.2124 5.67919 10.8991C6.80688 9.58585 8.29147 8.92922 10.1329 8.92922C11.075 8.92922 11.8744 9.04341 12.5167 9.25753C13.1591 9.47165 13.7443 9.75714 14.301 10.1283L14.7721 12.5835L16.3994 12.4265L15.9283 9.20043C15.2432 8.61518 14.4295 8.14412 13.4874 7.77298C12.5452 7.41612 11.3748 7.23055 9.99013 7.23055C8.34856 7.23055 6.93538 7.63023 5.75059 8.44388C4.56581 9.25753 3.63796 10.3281 2.98133 11.6557C2.3247 12.9975 1.99638 14.4392 1.99638 15.9808C1.99638 18.4218 2.75293 20.463 4.26603 22.0903C5.77913 23.7176 7.74901 24.5313 10.19 24.5313C12.5881 24.5313 14.4581 24.0174 15.7999 22.9896Z" fill="#292F36"/>
<path d="M23.7222 29.7843V0.578613H31.1164V29.77H23.7222V29.7843ZM24.5072 24.2743H30.3455V22.8041H28.3329V6.50255H24.4787V7.97282H26.52V22.8041H24.5072V24.2743Z" fill="#292F36"/>
<path d="M36.9546 29.7843V0.578613H49.9444V29.77H36.9546V29.7843ZM39.3099 13.6541L38.8959 16.3092L40.3948 16.4947L40.8373 14.5106C41.4796 14.1965 42.2076 14.0395 43.0641 14.0395C44.0919 14.0395 44.7913 14.2964 45.1482 14.8103C45.5051 15.3242 45.6764 15.9951 45.6764 16.823V17.8508C45.3623 17.8223 45.034 17.7937 44.6771 17.7794C44.3203 17.7652 43.9777 17.7509 43.6351 17.7509C42.3504 17.7509 41.1227 17.9793 39.9808 18.4361C38.8388 18.8928 38.2679 19.8492 38.2679 21.291C38.2679 22.5186 38.6533 23.3608 39.4384 23.8176C40.2235 24.2886 40.9943 24.517 41.7509 24.517C42.6787 24.517 43.4781 24.2743 44.1347 23.789C44.7913 23.3037 45.3052 22.7612 45.6764 22.1332V22.1903C45.7049 23.7462 46.4044 24.517 47.7747 24.517C48.3029 24.517 48.8025 24.3885 49.2735 24.1316L49.245 22.9468C49.0166 23.0467 48.7596 23.1038 48.4742 23.1038C47.8175 23.1038 47.4892 22.6899 47.4892 21.8619V16.3948C47.4892 13.8254 46.1188 12.5407 43.3781 12.5407C42.6216 12.5407 41.9079 12.6263 41.237 12.7976C40.5518 12.9832 39.9094 13.2687 39.3099 13.6541ZM45.6621 19.9634C45.5907 20.9056 45.2053 21.6621 44.5058 22.2045C43.8064 22.7612 43.0641 23.0325 42.2647 23.0325C41.7651 23.0325 41.2798 22.8897 40.823 22.6185C40.352 22.3473 40.1235 21.8334 40.1235 21.0911C40.1235 20.1918 40.4804 19.6208 41.1656 19.3496C41.865 19.0784 42.6358 18.9499 43.5066 18.9499C43.892 18.9499 44.2631 18.9642 44.62 19.007C44.9769 19.0356 45.3337 19.0641 45.6478 19.0784V19.9634H45.6621Z" fill="#292F36"/>
<path d="M55.7974 29.7843V0.578613H67.6024V29.77H55.7974V29.7843ZM66.3605 20.9484C66.3605 20.0348 66.1178 19.3639 65.6325 18.9214C65.1472 18.4789 64.5619 18.1791 63.8482 18.0078C63.1345 17.8365 62.435 17.6938 61.7356 17.5796C61.0361 17.4654 60.4366 17.2798 59.9513 17.0372C59.4659 16.7945 59.2232 16.3663 59.2232 15.7524C59.2232 15.1672 59.4516 14.739 59.9227 14.4535C60.3937 14.168 60.979 14.0395 61.707 14.0395C62.5492 14.0395 63.3343 14.2251 64.0623 14.6105L64.3478 16.4662L65.8466 16.2806L65.5611 13.597C65.0758 13.2972 64.4906 13.0546 63.7911 12.8547C63.0917 12.6549 62.3494 12.5407 61.55 12.5407C60.4937 12.5407 59.523 12.7976 58.6237 13.2972C57.7244 13.7968 57.2819 14.6533 57.2819 15.8809C57.2819 16.7802 57.5246 17.4368 58.0099 17.8508C58.4952 18.279 59.0948 18.5645 59.8228 18.7358C60.5508 18.9071 61.2645 19.0499 61.9782 19.1783C62.6919 19.2925 63.2915 19.4924 63.7768 19.7493C64.2622 20.0063 64.5048 20.4488 64.5048 21.0911C64.5048 21.7477 64.1908 22.2331 63.5627 22.5471C62.9346 22.8612 62.2209 23.0182 61.4072 23.0182C60.4937 23.0182 59.6372 22.8326 58.8521 22.4472L58.9235 20.9198L57.4817 20.7628L57.1249 23.375C57.6245 23.7034 58.2811 23.9746 59.0805 24.1887C59.8799 24.4028 60.6792 24.517 61.4929 24.517C62.8775 24.517 64.0338 24.203 64.9616 23.5606C65.8895 22.9468 66.3605 22.0618 66.3605 20.9484Z" fill="#292F36"/>
<path d="M73.4404 29.7843V0.578613H85.2454V29.77H73.4404V29.7843ZM84.0035 20.9484C84.0035 20.0348 83.7609 19.3639 83.2755 18.9214C82.7902 18.4789 82.2049 18.1791 81.4912 18.0078C80.7775 17.8365 80.0781 17.6938 79.3786 17.5796C78.6791 17.4654 78.0796 17.2798 77.5943 17.0372C77.1089 16.7945 76.8663 16.3663 76.8663 15.7524C76.8663 15.1672 77.0946 14.739 77.5657 14.4535C78.0368 14.168 78.622 14.0395 79.35 14.0395C80.1922 14.0395 80.9774 14.2251 81.7054 14.6105L81.9909 16.4662L83.4897 16.2806L83.2042 13.597C82.7188 13.2972 82.1336 13.0546 81.4341 12.8547C80.7347 12.6549 79.9924 12.5407 79.193 12.5407C78.1367 12.5407 77.1661 12.7976 76.2668 13.2972C75.3675 13.7968 74.925 14.6533 74.925 15.8809C74.925 16.7802 75.1676 17.4368 75.653 17.8508C76.1383 18.279 76.7379 18.5645 77.4659 18.7358C78.1939 18.9071 78.9075 19.0499 79.6212 19.1783C80.335 19.2925 80.9345 19.4924 81.4198 19.7493C81.9052 20.0063 82.1479 20.4488 82.1479 21.0911C82.1479 21.7477 81.8339 22.2331 81.2058 22.5471C80.5777 22.8612 79.864 23.0182 79.0503 23.0182C78.1367 23.0182 77.2802 22.8326 76.4951 22.4472L76.5666 20.9198L75.1248 20.7628L74.768 23.375C75.2676 23.7034 75.9242 23.9746 76.7236 24.1887C77.5229 24.4028 78.3223 24.517 79.136 24.517C80.5206 24.517 81.6768 24.203 82.6047 23.5606C83.5325 22.9468 84.0035 22.0618 84.0035 20.9484Z" fill="#292F36"/>
<path d="M91.084 29.7843V0.578613H98.8636V29.77H91.084V29.7843ZM92.2259 24.2743H98.0643V22.8041H96.0515V12.7833H92.1832V14.2536H94.2529V22.8041H92.2402V24.2743H92.2259ZM94.0531 7.45894V9.81424H96.023V7.45894H94.0531Z" fill="#292F36"/>
<path d="M104.702 29.7843V0.578613H117.135V29.77H104.702V29.7843ZM116.021 20.4059L114.465 20.0634C114.123 22.0047 113.081 22.9754 111.368 22.9754C110.226 22.9754 109.355 22.5899 108.756 21.8191C108.156 21.0483 107.856 19.9634 107.856 18.5931C107.856 17.3512 108.128 16.2949 108.656 15.4099C109.184 14.5248 110.069 14.0966 111.296 14.0966C112.239 14.0966 113.067 14.3107 113.752 14.739L114.194 16.6803L115.693 16.4947L115.251 13.7255C114.665 13.283 114.052 12.9689 113.409 12.7976C112.767 12.6263 112.067 12.5407 111.311 12.5407C109.526 12.5407 108.17 13.1688 107.285 14.4249C106.386 15.6811 105.944 17.1085 105.944 18.693C105.944 20.5344 106.415 21.9761 107.371 22.9896C108.313 24.0174 109.584 24.5313 111.168 24.5313C112.753 24.5313 113.923 24.0888 114.665 23.218C115.408 22.333 115.864 21.4052 116.021 20.4059Z" fill="#292F36"/>
<path d="M8.12019 45.729C7.79187 46.3285 7.30652 46.7996 6.67844 47.1279C6.03609 47.4562 5.27953 47.6275 4.39451 47.6275H1.83936V39.5767H4.39451C5.27953 39.5767 6.05036 39.7337 6.67844 40.062C7.30652 40.3903 7.79187 40.8471 8.12019 41.4609C8.4485 42.0747 8.60552 42.7742 8.60552 43.6021C8.60552 44.4157 8.4485 45.1295 8.12019 45.729ZM6.70698 45.886C7.26368 45.3436 7.53492 44.587 7.53492 43.6021C7.53492 42.6171 7.26368 41.8606 6.70698 41.3181C6.15027 40.7757 5.35089 40.5045 4.29458 40.5045H2.85288V46.6997H4.29458C5.35089 46.6997 6.15027 46.4284 6.70698 45.886Z" fill="#292F36"/>
<path d="M13.9014 40.4189V43.1738H16.9562V43.9732H13.9014V46.7853H17.2988V47.6275H12.8594V39.5767H17.2988V40.4189H13.9014Z" fill="#292F36"/>
<path d="M26.32 46.5994C26.1344 46.9278 25.8632 47.199 25.4921 47.3988C25.1209 47.5987 24.6641 47.7129 24.1074 47.7129C23.5793 47.7129 23.0939 47.6129 22.68 47.4274C22.266 47.2275 21.9377 46.9706 21.6808 46.628C21.4381 46.2854 21.2953 45.9 21.2525 45.4718H22.3659C22.3945 45.7001 22.4659 45.9285 22.5943 46.1427C22.7228 46.3568 22.9226 46.5423 23.1653 46.6851C23.408 46.8278 23.7077 46.8992 24.0646 46.8992C24.5214 46.8992 24.8783 46.785 25.121 46.5281C25.3636 46.2711 25.4921 45.9714 25.4921 45.5859C25.4921 45.2576 25.4064 44.9864 25.2351 44.7866C25.0638 44.5867 24.8497 44.4154 24.6071 44.3012C24.3644 44.187 24.0075 44.0586 23.5793 43.9158C23.0654 43.7445 22.6657 43.5875 22.3517 43.4448C22.0377 43.302 21.7807 43.0736 21.5666 42.7739C21.3524 42.4741 21.2383 42.0887 21.2383 41.6034C21.2383 41.1894 21.3382 40.8183 21.538 40.4899C21.7379 40.1759 22.0233 39.919 22.4088 39.7477C22.7799 39.5764 23.2367 39.4907 23.7363 39.4907C24.5214 39.4907 25.1637 39.6763 25.6205 40.0617C26.0916 40.4471 26.3485 40.9325 26.4342 41.532H25.3208C25.2637 41.2179 25.0924 40.9325 24.8354 40.6898C24.5642 40.4471 24.2074 40.3186 23.7506 40.3186C23.3366 40.3186 22.994 40.4328 22.7514 40.647C22.4944 40.8611 22.3802 41.1751 22.3802 41.5605C22.3802 41.8746 22.4659 42.1315 22.6229 42.3171C22.7942 42.5169 22.994 42.6597 23.2367 42.7739C23.4794 42.8881 23.8219 43.0023 24.2359 43.145C24.7498 43.3163 25.1638 43.4733 25.4921 43.6303C25.8061 43.7874 26.0773 44.0158 26.2914 44.3155C26.5056 44.6153 26.6198 45.0292 26.6198 45.5431C26.5912 45.9143 26.5056 46.2711 26.32 46.5994Z" fill="#292F36"/>
<path d="M31.8873 39.5767V47.6275H30.8452V39.5767H31.8873Z" fill="#292F36"/>
<path d="M42.4218 40.1903C43.0642 40.6613 43.4924 41.2894 43.7065 42.0888H42.6074C42.4218 41.6034 42.0935 41.2038 41.651 40.9183C41.2084 40.6185 40.6803 40.4758 40.0665 40.4758C39.5241 40.4758 39.0244 40.6042 38.5962 40.8612C38.168 41.1181 37.8254 41.475 37.5685 41.946C37.3258 42.4171 37.1973 42.9738 37.1973 43.6162C37.1973 44.2728 37.3258 44.8438 37.5685 45.3148C37.8111 45.7859 38.168 46.157 38.6105 46.414C39.053 46.6709 39.5669 46.7994 40.1522 46.7994C40.6518 46.7994 41.0942 46.6852 41.5082 46.4853C41.9222 46.2712 42.2505 45.9572 42.5217 45.5575C42.7929 45.1578 42.9357 44.6725 42.9928 44.13H39.8238V43.3592H43.8635V44.3156C43.7921 44.958 43.5923 45.5289 43.264 46.0571C42.9357 46.5853 42.4932 46.9849 41.9365 47.2847C41.3798 47.5845 40.7517 47.7415 40.0379 47.7415C39.2671 47.7415 38.5819 47.5702 37.9824 47.2276C37.3829 46.885 36.9261 46.3997 36.5978 45.7716C36.2694 45.1578 36.0981 44.4441 36.0981 43.6447C36.0981 42.8453 36.2694 42.1316 36.5978 41.5178C36.9261 40.904 37.3971 40.4044 37.9824 40.0618C38.5676 39.7192 39.2528 39.5336 40.0236 39.5336C40.9943 39.5051 41.7794 39.7335 42.4218 40.1903Z" fill="#292F36"/>
<path d="M54.3983 47.6275H53.3563L49.1738 41.2611V47.6275H48.1318V39.5767H49.1738L53.3563 45.9431V39.5767H54.3983V47.6275Z" fill="#292F36"/>
<path d="M69.4152 46.5994C69.2297 46.9278 68.9584 47.199 68.5873 47.3988C68.2161 47.5987 67.7594 47.7129 67.2027 47.7129C66.6745 47.7129 66.1892 47.6129 65.7752 47.4274C65.3613 47.2275 65.0329 46.9706 64.776 46.628C64.5333 46.2854 64.3906 45.9 64.3478 45.4718H65.4612C65.4897 45.7001 65.5611 45.9285 65.6896 46.1427C65.8181 46.3568 66.0179 46.5423 66.2605 46.6851C66.5032 46.8278 66.803 46.8992 67.1598 46.8992C67.6166 46.8992 67.9735 46.785 68.2161 46.5281C68.4588 46.2711 68.5873 45.9714 68.5873 45.5859C68.5873 45.2576 68.5016 44.9864 68.3303 44.7866C68.1591 44.5867 67.9449 44.4154 67.7023 44.3012C67.4596 44.187 67.1028 44.0586 66.6745 43.9158C66.1607 43.7445 65.7609 43.5875 65.4469 43.4448C65.1328 43.302 64.8759 43.0736 64.6618 42.7739C64.4477 42.4741 64.3335 42.0887 64.3335 41.6034C64.3335 41.1894 64.4334 40.8183 64.6332 40.4899C64.833 40.1759 65.1186 39.919 65.504 39.7477C65.8752 39.5764 66.3319 39.4907 66.8315 39.4907C67.6166 39.4907 68.259 39.6763 68.7158 40.0617C69.1868 40.4471 69.4438 40.9325 69.5294 41.532H68.416C68.3589 41.2179 68.1876 40.9325 67.9306 40.6898C67.6594 40.4471 67.3026 40.3186 66.8458 40.3186C66.4319 40.3186 66.0893 40.4328 65.8466 40.647C65.5897 40.8611 65.4754 41.1751 65.4754 41.5605C65.4754 41.8746 65.5611 42.1315 65.7181 42.3171C65.8894 42.5169 66.0892 42.6597 66.3319 42.7739C66.5745 42.8881 66.9172 43.0023 67.3311 43.145C67.845 43.3163 68.259 43.4733 68.5873 43.6303C68.9013 43.7874 69.1725 44.0158 69.3867 44.3155C69.6008 44.6153 69.7149 45.0292 69.7149 45.5431C69.6864 45.9143 69.6008 46.2711 69.4152 46.5994Z" fill="#292F36"/>
<path d="M78.8789 39.5767V40.4189H76.6092V47.6275H75.5529V40.4189H73.2832V39.5767H78.8789Z" fill="#292F36"/>
<path d="M83.7322 39.5767V44.4014C83.7322 45.1865 83.9035 45.7718 84.2603 46.1572C84.6172 46.5284 85.0883 46.7282 85.7164 46.7282C86.3302 46.7282 86.8012 46.5426 87.1438 46.1572C87.4864 45.7718 87.6577 45.2008 87.6577 44.4157V39.5909H88.6998V44.4157C88.6998 45.5149 88.4286 46.3428 87.8861 46.8852C87.3437 47.4419 86.6156 47.7131 85.7021 47.7131C84.8028 47.7131 84.0748 47.4419 83.5324 46.8852C82.99 46.3285 82.7188 45.5149 82.7188 44.4157V39.5909H83.7322V39.5767Z" fill="#292F36"/>
<path d="M99.4487 45.729C99.1204 46.3285 98.635 46.7996 98.007 47.1279C97.3646 47.4562 96.6081 47.6275 95.7231 47.6275H93.168V39.5767H95.7231C96.6081 39.5767 97.3789 39.7337 98.007 40.062C98.635 40.3903 99.1204 40.8471 99.4487 41.4609C99.777 42.0747 99.9341 42.7742 99.9341 43.6021C99.9341 44.4157 99.777 45.1295 99.4487 45.729ZM98.0498 45.886C98.6065 45.3436 98.8778 44.587 98.8778 43.6021C98.8778 42.6171 98.6065 41.8606 98.0498 41.3181C97.4931 40.7757 96.6938 40.5045 95.6374 40.5045H94.1957V46.6997H95.6374C96.6795 46.6997 97.4931 46.4284 98.0498 45.886Z" fill="#292F36"/>
<path d="M105.244 39.5767V47.6275H104.202V39.5767H105.244Z" fill="#292F36"/>
<path d="M115.465 40.0047C116.064 40.3616 116.535 40.8469 116.878 41.475C117.221 42.1031 117.392 42.8168 117.392 43.6019C117.392 44.387 117.221 45.1007 116.878 45.7288C116.535 46.3569 116.064 46.8422 115.465 47.1991C114.865 47.556 114.194 47.7272 113.452 47.7272C112.71 47.7272 112.025 47.556 111.425 47.1991C110.826 46.8422 110.34 46.3569 109.998 45.7288C109.655 45.1007 109.484 44.387 109.484 43.6019C109.484 42.8168 109.655 42.1031 109.998 41.475C110.34 40.8469 110.811 40.3616 111.425 40.0047C112.039 39.6479 112.71 39.4766 113.452 39.4766C114.194 39.4766 114.865 39.6479 115.465 40.0047ZM111.953 40.8326C111.511 41.0896 111.168 41.4464 110.926 41.9318C110.683 42.4028 110.554 42.9595 110.554 43.6019C110.554 44.23 110.683 44.7867 110.926 45.272C111.168 45.7574 111.511 46.1142 111.953 46.3712C112.396 46.6281 112.881 46.7566 113.438 46.7566C113.98 46.7566 114.48 46.6281 114.922 46.3712C115.365 46.1142 115.708 45.7431 115.95 45.272C116.193 44.801 116.321 44.2443 116.321 43.6162C116.321 42.9738 116.193 42.4171 115.95 41.9461C115.708 41.475 115.365 41.1039 114.922 40.8469C114.48 40.59 113.995 40.4615 113.438 40.4615C112.895 40.4472 112.396 40.5757 111.953 40.8326Z" fill="#292F36"/>
</svg>
