<svg width="132" height="44" viewBox="0 0 132 44" fill="none" xmlns="http://www.w3.org/2000/svg">
<path d="M11.6337 0.976562V1.16213L10.8629 1.3477V9.56983L11.6337 9.7554V9.94097H7.97946V9.7554L8.7503 9.56983V2.56104L5.7241 10.0694H5.33866L1.41317 2.56104V9.36999L2.44093 9.7554V9.94097H0V9.7554L1.02777 9.36999V1.3477L0.256931 1.16213V0.976562H1.85567C2.09834 0.976562 2.31246 1.00511 2.48376 1.06221C2.65505 1.11931 2.82637 1.19068 2.95484 1.2906C3.09758 1.39052 3.21178 1.50472 3.3117 1.63319C3.41162 1.76166 3.49728 1.91868 3.58292 2.0757L6.38072 7.42865L8.5219 2.0757C8.59327 1.89013 8.66466 1.73311 8.76459 1.60464C8.85023 1.47617 8.9644 1.36198 9.09287 1.26205C9.22134 1.16213 9.37839 1.09076 9.56396 1.04793C9.74953 1.00511 9.9779 0.976562 10.2634 0.976562H11.6337Z" fill="#292F36"/>
<path d="M16.202 3.36035C16.7302 3.36035 17.2155 3.43172 17.6295 3.58874C18.0434 3.74576 18.4003 3.97416 18.7001 4.25965C18.9998 4.55941 19.214 4.91627 19.371 5.33024C19.528 5.7442 19.5994 6.22953 19.5994 6.75769C19.5994 7.28585 19.528 7.77118 19.371 8.18514C19.214 8.5991 18.9856 8.95597 18.7001 9.25573C18.4003 9.5555 18.0434 9.76962 17.6295 9.92664C17.2155 10.0837 16.7302 10.155 16.202 10.155C15.6739 10.155 15.1885 10.0837 14.7746 9.92664C14.3606 9.76962 14.0038 9.54122 13.704 9.25573C13.4042 8.95597 13.1901 8.5991 13.0331 8.18514C12.8761 7.77118 12.8047 7.28585 12.8047 6.75769C12.8047 6.22953 12.8761 5.7442 13.0331 5.33024C13.1901 4.91627 13.4185 4.55941 13.704 4.25965C14.0038 3.95988 14.3606 3.74576 14.7746 3.58874C15.1885 3.43172 15.6596 3.36035 16.202 3.36035ZM16.202 9.91236C16.3448 9.91236 16.4875 9.86954 16.6445 9.76962C16.7873 9.6697 16.9157 9.51268 17.0299 9.27001C17.1441 9.02734 17.2441 8.7133 17.3154 8.31361C17.3868 7.89965 17.4296 7.38577 17.4296 6.77196C17.4296 6.14389 17.3868 5.63 17.3154 5.23031C17.2441 4.83063 17.1441 4.50231 17.0299 4.27392C16.9157 4.04553 16.7873 3.87424 16.6445 3.77431C16.5018 3.67439 16.3591 3.63157 16.202 3.63157C16.0593 3.63157 15.9165 3.67439 15.7595 3.77431C15.6168 3.87424 15.4883 4.03125 15.3741 4.27392C15.2599 4.51659 15.16 4.83063 15.0886 5.23031C15.0172 5.64428 14.9744 6.15816 14.9744 6.77196C14.9744 7.40004 15.0172 7.91393 15.0886 8.31361C15.16 8.7133 15.2599 9.04162 15.3741 9.27001C15.4883 9.4984 15.6168 9.6697 15.7595 9.76962C15.9023 9.85526 16.045 9.91236 16.202 9.91236Z" fill="#292F36"/>
<path d="M25.8369 0.976562C26.6078 0.976562 26.9932 1.36197 26.9932 2.1328V9.58411L27.764 9.76968V9.95525H26.6078C26.2937 9.95525 26.051 9.91242 25.8655 9.8125C25.6799 9.71258 25.5229 9.59838 25.423 9.48419C25.2945 9.34144 25.1946 9.17015 25.1375 8.99885C25.0233 9.22725 24.8805 9.41281 24.7092 9.58411C24.5665 9.72685 24.3666 9.85532 24.124 9.98379C23.8813 10.1123 23.5958 10.1694 23.2675 10.1694C22.8964 10.1694 22.5538 10.098 22.2397 9.95525C21.9114 9.8125 21.6402 9.59838 21.4118 9.31289C21.1834 9.0274 20.9836 8.67054 20.8551 8.25658C20.7124 7.82834 20.6553 7.343 20.6553 6.77202C20.6553 6.20104 20.7267 5.71571 20.8551 5.28747C20.9979 4.85924 21.1834 4.51665 21.4404 4.23116C21.683 3.94567 21.9828 3.73155 22.3254 3.5888C22.668 3.44606 23.0534 3.37468 23.4816 3.37468C23.71 3.37468 23.9099 3.40323 24.0954 3.44606C24.281 3.50315 24.438 3.56025 24.5665 3.63163C24.7235 3.703 24.852 3.78865 24.9662 3.88857V1.39053L24.1954 1.20495V1.01939H25.8369V0.976562ZM24.9376 4.2597C24.8377 4.15978 24.7521 4.07414 24.6379 4.00277C24.538 3.93139 24.438 3.87429 24.3238 3.81719C24.2096 3.7601 24.0954 3.74582 23.967 3.74582C23.81 3.74582 23.6529 3.78865 23.5102 3.87429C23.3674 3.95994 23.2532 4.10269 23.139 4.3168C23.0391 4.53092 22.9535 4.84496 22.8964 5.23037C22.8393 5.63006 22.8107 6.12967 22.8107 6.75775C22.8107 7.37155 22.8393 7.85689 22.8964 8.2423C22.9535 8.62771 23.0249 8.92748 23.1248 9.1416C23.2104 9.35571 23.3104 9.51274 23.4388 9.58411C23.553 9.65548 23.6672 9.6983 23.7814 9.6983C23.9812 9.6983 24.1525 9.64121 24.2953 9.54128C24.438 9.44136 24.5522 9.31289 24.6521 9.18442C24.7663 9.0274 24.8663 8.8561 24.9519 8.67054V4.2597H24.9376Z" fill="#292F36"/>
<path d="M32.0605 10.1697C30.9614 10.1697 30.1049 9.86991 29.5054 9.27038C28.8916 8.67085 28.5918 7.82865 28.5918 6.77234C28.5918 6.24418 28.6632 5.75885 28.8202 5.34488C28.9772 4.93092 29.1913 4.57406 29.4626 4.27429C29.7338 3.97453 30.0621 3.76041 30.4618 3.60339C30.8472 3.44637 31.2754 3.375 31.7465 3.375C32.2318 3.375 32.6601 3.44637 33.0312 3.57484C33.4166 3.71759 33.7306 3.90316 34.0019 4.13155C34.2731 4.35994 34.4729 4.63116 34.6157 4.9452C34.7584 5.25924 34.8298 5.58755 34.8298 5.94442C34.8298 6.05861 34.8298 6.17281 34.8155 6.25846C34.8012 6.3441 34.787 6.42975 34.7727 6.50112C34.7441 6.58677 34.7298 6.65814 34.7013 6.71524C34.3302 6.78661 33.9305 6.85799 33.5022 6.90081C33.1454 6.95791 32.7314 7.00073 32.2604 7.02928C31.7893 7.05783 31.304 7.08638 30.7901 7.08638C30.7901 7.61454 30.8329 8.05705 30.9043 8.41391C30.9756 8.77078 31.0898 9.05626 31.2183 9.25611C31.3611 9.47022 31.5181 9.61297 31.7036 9.69862C31.8892 9.78427 32.1034 9.82709 32.3175 9.82709C32.5744 9.82709 32.8171 9.78427 33.0454 9.68434C33.2738 9.58442 33.4737 9.47023 33.6307 9.31321C33.802 9.15619 33.9305 8.97062 34.0304 8.77078C34.1303 8.57093 34.1731 8.37109 34.1731 8.15697H34.4872C34.4872 8.41391 34.4301 8.65658 34.3159 8.89924C34.2017 9.14191 34.0304 9.35603 33.8163 9.5416C33.6022 9.72717 33.3452 9.86991 33.0454 9.98411C32.76 10.1126 32.4316 10.1697 32.0605 10.1697ZM30.7758 6.75806C31.0613 6.75806 31.3182 6.75807 31.5466 6.74379C31.775 6.72952 31.9606 6.71524 32.1176 6.70097C32.3032 6.68669 32.4459 6.65814 32.5744 6.64387C32.5887 6.55822 32.6172 6.4583 32.6315 6.35838C32.6458 6.25846 32.6601 6.15853 32.6743 6.04434C32.6886 5.93014 32.6886 5.80167 32.6886 5.6732C32.6886 5.28779 32.66 4.95947 32.6029 4.70253C32.5458 4.44559 32.4745 4.23147 32.3745 4.06018C32.2889 3.90316 32.189 3.77469 32.0605 3.71759C31.932 3.66049 31.8321 3.61767 31.7179 3.61767C31.6037 3.61767 31.4895 3.66049 31.3753 3.74614C31.2612 3.83179 31.1612 3.9888 31.0613 4.20292C30.9757 4.43132 30.89 4.74536 30.8329 5.15932C30.7758 5.57328 30.7758 6.10143 30.7758 6.75806Z" fill="#292F36"/>
<path d="M40.2255 3.80281C39.9686 3.80281 39.7402 3.85991 39.5403 3.95983C39.3405 4.05975 39.1692 4.18822 39.0264 4.31669C38.8694 4.47371 38.7409 4.64501 38.6125 4.83058V9.584L39.3833 9.76956V9.95513H35.7861V9.76956L36.557 9.584V3.93128L35.7861 3.74571V3.56014H36.9424C37.2421 3.56014 37.4848 3.61724 37.6846 3.71716C37.8702 3.81708 38.0272 3.93128 38.1414 4.04548C38.2699 4.18822 38.3698 4.34524 38.4269 4.51654C38.5554 4.33097 38.7124 4.15967 38.898 4.00265C39.055 3.87418 39.2549 3.75999 39.4975 3.64579C39.7402 3.53159 40.0114 3.48877 40.3397 3.48877C40.7965 3.48877 41.1391 3.60296 41.3675 3.80281C41.5959 4.01693 41.6958 4.31669 41.6958 4.70211C41.6958 4.9876 41.6101 5.23026 41.4388 5.40156C41.2675 5.57285 41.0249 5.6585 40.7394 5.6585C40.668 5.6585 40.6109 5.6585 40.5395 5.6585C40.4682 5.6585 40.4254 5.64422 40.3825 5.64422C40.3254 5.62995 40.2683 5.62995 40.2255 5.6014V3.80281Z" fill="#292F36"/>
<path d="M47.2198 5.4731C47.2198 5.18761 47.1913 4.93067 47.1342 4.71655C47.0771 4.50243 47.0057 4.33113 46.9058 4.20266C46.8202 4.05992 46.7203 3.96 46.5918 3.9029C46.4776 3.8458 46.3634 3.80298 46.2492 3.80298C46.0493 3.80298 45.878 3.86008 45.7353 3.96C45.5926 4.05992 45.4641 4.18839 45.3784 4.31686C45.2642 4.47388 45.1786 4.64518 45.0929 4.83074V9.58416L45.8638 9.76973V9.9553H42.2666V9.76973L43.0374 9.58416V3.93145L42.2666 3.74588V3.56031H43.4228C43.7226 3.56031 43.9653 3.61741 44.1651 3.71733C44.3507 3.81725 44.5077 3.93145 44.6219 4.04564C44.7504 4.18839 44.8503 4.34541 44.9074 4.5167C45.0216 4.30258 45.1643 4.10274 45.3356 3.93145C45.4784 3.7887 45.6782 3.66023 45.9066 3.53176C46.135 3.40329 46.4347 3.34619 46.7773 3.34619C47.1485 3.34619 47.4911 3.40329 47.7908 3.53176C48.1049 3.64596 48.3618 3.81725 48.5759 4.00282C48.79 4.20266 48.9614 4.41678 49.0898 4.67372C49.2183 4.93067 49.2754 5.18761 49.2754 5.45882V9.56989L50.0462 9.75546V9.94103H48.3761C47.6053 9.94103 47.2198 9.55561 47.2198 8.78479V5.4731Z" fill="#292F36"/>
<path d="M1.35645 18.9769V18.4487H11.2772V18.9769L9.19315 19.505V30.2823H16.673V19.505L14.5889 18.9769V18.4487H24.5097V18.9769L22.4256 19.505V41.7733L24.5097 42.3015V42.8296H14.5889V42.2872L16.673 41.759V31.1531H9.19315V41.759L11.2772 42.2872V42.8154H1.35645V42.2872L3.44052 41.759V19.4908L1.35645 18.9769Z" fill="#292F36"/>
<path d="M36.8424 24.8862C38.2842 24.8862 39.5689 25.1003 40.7108 25.5143C41.8528 25.9283 42.8092 26.5421 43.6085 27.3415C44.4079 28.1408 45.0217 29.1115 45.4357 30.2535C45.8496 31.3954 46.0638 32.6801 46.0638 34.1219C46.0638 35.5636 45.8496 36.8483 45.4357 37.9903C45.0217 39.1322 44.4079 40.0886 43.6085 40.888C42.8092 41.6874 41.8385 42.3012 40.7108 42.7151C39.5689 43.1291 38.2842 43.3432 36.8424 43.3432C35.4007 43.3432 34.116 43.1291 32.974 42.7151C31.8321 42.3012 30.8757 41.6874 30.0763 40.888C29.2769 40.0886 28.6631 39.1179 28.2492 37.9903C27.8352 36.8483 27.6211 35.5636 27.6211 34.1219C27.6211 32.6801 27.8352 31.3954 28.2492 30.2535C28.6631 29.1115 29.2769 28.1551 30.0763 27.3415C30.8757 26.5278 31.8464 25.9283 32.974 25.5143C34.116 25.1003 35.4007 24.8862 36.8424 24.8862ZM36.8424 42.6295C37.2421 42.6295 37.6276 42.501 38.0272 42.2441C38.4269 41.9871 38.7695 41.5446 39.0835 40.9023C39.3976 40.2599 39.6545 39.3892 39.8544 38.29C40.0542 37.1909 40.1541 35.792 40.1541 34.0933C40.1541 32.3946 40.0542 30.9957 39.8544 29.8966C39.6545 28.7975 39.3976 27.9267 39.0835 27.2844C38.7695 26.642 38.4127 26.1995 38.0272 25.9425C37.6418 25.6856 37.2421 25.5571 36.8424 25.5571C36.4427 25.5571 36.0574 25.6856 35.6577 25.9425C35.258 26.1995 34.9154 26.642 34.6013 27.2844C34.2873 27.9267 34.0304 28.7975 33.8305 29.8966C33.6307 30.9957 33.5307 32.3946 33.5307 34.0933C33.5307 35.792 33.6307 37.1909 33.8305 38.29C34.0304 39.3892 34.2873 40.2599 34.6013 40.9023C34.9154 41.5446 35.2723 41.9871 35.6577 42.2441C36.0574 42.501 36.4427 42.6295 36.8424 42.6295Z" fill="#292F36"/>
<path d="M72.1433 30.6248C72.1433 29.7969 72.072 29.0832 71.9292 28.5265C71.7865 27.9698 71.6152 27.4987 71.3868 27.1418C71.1584 26.785 70.9157 26.528 70.6588 26.3567C70.3876 26.1997 70.1306 26.1141 69.8737 26.1141C69.4312 26.1141 69.0458 26.2568 68.7032 26.5423C68.3606 26.8278 68.0751 27.1561 67.8182 27.4987C67.5469 27.9127 67.29 28.3837 67.0902 28.8833V41.759L69.1885 42.2871V42.8153H59.4533V42.2871L61.5374 41.759V30.6248C61.5374 29.7969 61.466 29.0832 61.3232 28.5265C61.1805 27.9698 61.0092 27.4987 60.7808 27.1418C60.5524 26.785 60.3098 26.528 60.0528 26.3567C59.7816 26.1997 59.5246 26.1141 59.2677 26.1141C58.8252 26.1141 58.4398 26.2568 58.0972 26.5423C57.7546 26.8278 57.4691 27.1561 57.2122 27.4987C56.9267 27.9127 56.684 28.3837 56.4842 28.8833V41.759L58.5683 42.2871V42.8153H48.833V42.2871L50.9171 41.759V26.4567L48.833 25.9285V25.4003H51.9591C52.7728 25.4003 53.4437 25.5431 53.9576 25.8143C54.4857 26.0855 54.8854 26.3996 55.1995 26.7136C55.5421 27.1133 55.799 27.5415 55.9703 27.9983C56.27 27.4131 56.6412 26.8992 57.0837 26.4281C57.4834 26.0284 57.9687 25.6716 58.5397 25.3432C59.125 25.0149 59.8244 24.8579 60.6666 24.8579C62.0512 24.8579 63.2646 25.172 64.2638 25.7858C65.2773 26.3996 66.0481 27.1989 66.5763 28.1696C66.8761 27.5701 67.2472 27.0276 67.6897 26.528C68.0894 26.1141 68.5747 25.7287 69.1457 25.3861C69.7309 25.0435 70.4304 24.8579 71.2726 24.8579C72.229 24.8579 73.0855 25.0149 73.8848 25.3147C74.6699 25.6145 75.3551 26.0284 75.9261 26.5566C76.4971 27.0847 76.9396 27.6843 77.2536 28.3837C77.5677 29.0832 77.7247 29.8254 77.7247 30.6105V41.7447L79.8088 42.2728V42.801H75.2837C73.1996 42.801 72.1576 41.759 72.1576 39.6749V30.6248H72.1433Z" fill="#292F36"/>
<path d="M91.2852 43.329C88.3161 43.329 86.0037 42.5154 84.3621 40.8738C82.7205 39.2323 81.8926 36.9911 81.8926 34.1077C81.8926 32.666 82.1067 31.3813 82.5207 30.2393C82.9346 29.0973 83.5199 28.1409 84.2622 27.3273C85.0044 26.5279 85.9037 25.9141 86.9601 25.5001C88.0164 25.0862 89.1726 24.8721 90.4145 24.8721C91.7135 24.8721 92.884 25.0576 93.9118 25.4288C94.9395 25.7999 95.8245 26.2995 96.5383 26.9276C97.252 27.5557 97.8087 28.298 98.1941 29.1402C98.5795 29.9824 98.7651 30.8816 98.7651 31.838C98.7651 32.1664 98.7508 32.4518 98.708 32.6945C98.6652 32.9372 98.6366 33.1513 98.5795 33.3369C98.5081 33.5653 98.451 33.7651 98.4082 33.9221C97.3805 34.1362 96.3099 34.3075 95.1679 34.4503C94.1973 34.593 93.0695 34.7072 91.7991 34.8214C90.5287 34.9213 89.1869 34.9784 87.8023 34.9784C87.8023 36.4202 87.9022 37.6192 88.1163 38.5756C88.3304 39.532 88.6159 40.3028 88.987 40.8738C89.3582 41.4448 89.8007 41.8445 90.3145 42.0872C90.8284 42.3298 91.3852 42.4583 91.9847 42.4583C92.6841 42.4583 93.3408 42.3298 93.9546 42.0729C94.5684 41.8159 95.0965 41.4734 95.5533 41.0451C96.0101 40.6169 96.367 40.1315 96.6382 39.5891C96.9094 39.0467 97.0379 38.49 97.0379 37.9333H97.9086C97.9086 38.6327 97.7516 39.3036 97.4376 39.946C97.1235 40.6026 96.681 41.1736 96.0958 41.6732C95.5105 42.1728 94.8253 42.5725 94.0117 42.8723C93.1838 43.172 92.2702 43.329 91.2852 43.329ZM87.8023 34.1077C88.5874 34.1077 89.2868 34.0934 89.8863 34.0506C90.4859 34.0078 90.9998 33.9792 91.4137 33.9364C91.899 33.8936 92.313 33.8365 92.6699 33.7651C92.7127 33.5367 92.7698 33.2798 92.8412 32.9943C92.884 32.7373 92.9268 32.4518 92.9553 32.1378C92.9839 31.8238 93.0125 31.4955 93.0125 31.1529C93.0125 30.1108 92.9268 29.2401 92.7698 28.5263C92.6127 27.8126 92.3986 27.2416 92.156 26.7991C91.9133 26.3566 91.6278 26.0426 91.3281 25.857C91.014 25.6714 90.7 25.5715 90.4002 25.5715C90.1004 25.5715 89.7864 25.6857 89.4724 25.8998C89.1583 26.1282 88.8871 26.5422 88.6444 27.156C88.4018 27.7698 88.2019 28.6405 88.0307 29.754C87.8879 30.8674 87.8023 32.3234 87.8023 34.1077Z" fill="#292F36"/>
<path d="M115.852 42.4584V28.3409L103.376 18.4629V42.4584H115.852Z" fill="#292F36"/>
<path d="M131.283 42.4584V28.3409L119.007 18.4629V42.4584H131.283Z" fill="#292F36"/>
</svg>
