<svg width="146" height="45" viewBox="0 0 146 45" fill="none" xmlns="http://www.w3.org/2000/svg">
<path d="M21.2234 8.95729L22.294 8.7289C22.5652 8.7289 22.7936 8.786 22.9507 8.9002C23.1077 9.01439 23.1933 9.12859 23.1933 9.22851C23.1933 9.32843 23.1648 9.48545 23.122 9.67102C23.0791 9.85659 22.6794 11.7694 21.9372 15.3808C21.1949 18.9923 20.6525 21.6902 20.3099 23.4602C21.9657 21.2048 23.9071 18.4356 26.1196 15.1382C28.3322 11.8407 29.6312 9.65674 30.0023 8.57188C30.1165 8.22929 30.2735 7.97235 30.4591 7.78678C30.6446 7.60121 30.8159 7.48702 30.9587 7.45847C31.1014 7.42992 31.3298 7.40137 31.6296 7.40137C31.9294 7.40137 32.2862 7.47274 32.7002 7.60121C33.1141 7.72968 33.3283 7.9438 33.3283 8.25784C33.3283 8.82882 32.4718 10.4989 30.7731 13.2397C29.0744 15.9804 27.1188 18.8924 24.9206 21.9757C22.7223 25.059 20.8951 27.4999 19.4249 29.2985C19.1679 29.6125 18.8396 29.7838 18.4685 29.7838C18.0973 29.7838 17.6976 29.7125 17.2837 29.584C16.8697 29.4555 16.6556 29.2271 16.6556 28.8845C16.6556 27.814 17.5977 22.6466 19.4819 13.4109C17.8689 15.495 15.9133 18.407 13.6151 22.1327C11.217 25.9868 9.86092 28.3849 9.54688 29.2985C9.37558 29.8552 9.17574 30.1835 8.94735 30.2692C8.79033 30.3405 8.61903 30.3691 8.44773 30.3691L7.2915 30.4976C7.06311 30.4976 6.86326 30.4405 6.66342 30.312C6.47785 30.1835 6.37793 30.0551 6.37793 29.9123C6.37793 29.5269 6.92037 28.3564 7.99096 26.415C9.06155 24.4737 10.332 22.3611 11.7737 20.0772C13.2154 17.7932 14.7143 15.5807 16.2845 13.4252C17.8547 11.2698 19.068 9.81376 19.9245 9.08576C20.0958 8.92874 20.2956 8.85737 20.524 8.85737L21.2234 8.95729Z" fill="#292F36"/>
<path d="M38.381 18.6354C39.1233 18.6354 39.4944 18.8924 39.4944 19.392C39.4944 19.6632 39.4373 19.8631 39.3088 19.9915C39.1804 20.12 38.9092 20.534 38.4952 21.262C38.0813 21.9757 37.6245 22.8893 37.1248 24.0169C36.6252 25.1304 36.2969 26.0868 36.1542 26.8719C36.1256 26.9718 36.1114 27.1002 36.1114 27.2858C36.1114 27.8283 36.2541 28.0852 36.5539 28.0852C36.8536 28.0852 37.1962 27.9424 37.5959 27.6712C37.9956 27.3857 38.3525 27.1002 38.6665 26.7719C38.9805 26.4579 39.2803 26.1296 39.5801 25.8013C39.8798 25.473 40.0511 25.2731 40.1082 25.2303C40.1653 25.1875 40.251 25.1589 40.3652 25.1589C40.5507 25.1589 40.6649 25.3017 40.7078 25.5872C40.7506 25.8726 40.7649 26.1581 40.7649 26.4722C40.7649 26.7862 40.7363 26.9861 40.6792 27.1002C40.3937 27.657 39.7799 28.3279 38.8093 29.113C37.8529 29.8981 36.9678 30.2835 36.1827 30.2835C35.3976 30.2835 34.8124 30.0408 34.4555 29.5697C34.0987 29.0987 33.8988 28.5563 33.8988 27.9853C33.8988 27.4 33.9987 26.9004 34.1986 26.4579C33.3849 27.5142 32.4571 28.3992 31.415 29.1415C30.3587 29.8695 29.5165 30.2406 28.8456 30.2406C28.1747 30.2406 27.6466 30.0408 27.2183 29.6411C26.6759 29.1415 26.4189 28.4563 26.4189 27.5713C26.4189 26.6863 26.6188 25.8013 27.0185 24.902C27.4182 24.017 27.9321 23.189 28.5744 22.461C29.2168 21.7187 29.9305 21.0478 30.7013 20.4483C32.3143 19.1779 33.8132 18.5498 35.1835 18.5498C35.7117 18.5498 36.1399 18.6355 36.4682 18.8067C36.7965 18.978 37.0107 19.2064 37.0963 19.4634C37.3247 19.1065 37.5245 18.8924 37.6958 18.7925C37.8243 18.6783 38.067 18.6354 38.381 18.6354ZM36.4397 20.2628C34.7696 20.2628 33.0423 21.1906 31.258 23.0463C30.6299 23.7172 30.0447 24.5023 29.5023 25.4301C28.9598 26.358 28.7029 26.9861 28.7029 27.3286C28.7029 27.6712 28.8028 27.8425 29.0027 27.8425C29.2739 27.8425 30.0304 27.3001 31.2866 26.2295C32.5427 25.1589 33.3707 24.3595 33.7703 23.8457C34.2271 23.2747 35.1121 22.0756 36.4397 20.2628Z" fill="#292F36"/>
<path d="M49.4874 10.8984L50.0869 11.0412C50.1726 11.0412 50.2582 11.084 50.3153 11.1697C50.3867 11.2553 50.4152 11.3409 50.4152 11.4123C50.4152 11.4837 50.3153 11.6978 50.1012 12.0404C49.8871 12.383 49.6587 12.7684 49.3732 13.1966C49.0877 13.6249 48.945 13.8675 48.9307 13.9104C49.6872 13.8533 50.2297 13.8247 50.5437 13.8247C50.8577 13.8247 51.0719 13.8533 51.2003 13.8961C51.3145 13.9389 51.4573 14.0674 51.6 14.2672C51.757 14.4671 51.8855 14.6241 52.014 14.724C52.1425 14.8239 52.1996 14.981 52.1996 15.1808C52.1996 15.3806 52.0711 15.5662 51.8284 15.6947C51.5857 15.8374 51.3145 15.9231 51.029 15.9516C48.7594 16.18 47.5175 16.2942 47.2891 16.3085C46.504 17.5218 45.3906 19.4061 43.9774 21.9612C42.5642 24.5163 41.8077 26.1294 41.722 26.7717C41.6792 27.0715 41.6649 27.2999 41.6649 27.4854C41.6649 27.8709 41.8648 28.0564 42.2645 28.0564C42.6642 28.0564 43.1067 27.8994 43.592 27.5996C44.0773 27.2856 44.5341 26.9573 44.9338 26.6004C46.0329 25.6298 46.6182 25.1302 46.6896 25.1302C46.9465 25.1302 47.075 25.5727 47.075 26.4434C47.075 26.9145 46.8609 27.3427 46.4184 27.7281C45.4334 28.5703 44.6055 29.2127 43.9346 29.6409C43.2637 30.0691 42.5928 30.2833 41.9076 30.2833C41.7649 30.2833 41.6221 30.269 41.4937 30.2404C40.7086 30.0977 40.1376 29.8122 39.7807 29.384C39.4096 28.9557 39.2383 28.3847 39.2383 27.671C39.2383 26.9573 39.4524 26.0723 39.8806 25.0445C40.3089 24.0167 40.837 22.9176 41.4794 21.7614C42.5357 19.8628 43.592 18.0928 44.6341 16.437L44.0773 16.5083C42.9497 16.6368 42.293 16.6939 42.1075 16.6939H41.979C41.6935 16.6939 41.4223 16.6368 41.1653 16.5226C40.9084 16.4084 40.7656 16.2657 40.7656 16.1086C40.7656 15.9374 40.837 15.7803 40.9798 15.6233C41.1225 15.4663 41.2082 15.3378 41.2367 15.2522C41.3081 15.0381 41.565 14.7954 42.0075 14.5384C42.45 14.2815 42.7784 14.1388 43.0068 14.1245C43.2352 14.1102 43.4493 14.0959 43.6634 14.0817C43.8775 14.0674 44.1059 14.0674 44.3628 14.0531C44.6198 14.0388 44.8196 14.0388 44.9624 14.0246L46.2756 13.9675C47.0893 12.7399 47.6603 11.9405 47.96 11.5979C48.2741 11.241 48.4454 11.0555 48.4882 11.0269C48.531 10.9984 48.6309 10.9698 48.7879 10.9698L49.4874 10.8984Z" fill="#292F36"/>
<path d="M58.2658 25.1589C58.4514 25.1589 58.5655 25.3016 58.6084 25.5871C58.6512 25.8726 58.6655 26.1581 58.6655 26.4721C58.6655 26.7862 58.6369 26.986 58.5798 27.1002C58.2943 27.6426 57.6805 28.3135 56.7241 29.0986C55.7677 29.8837 54.8542 30.2834 53.9977 30.2834C53.4695 30.2834 52.9842 30.1264 52.5274 29.8124C52.0849 29.4983 51.8565 28.9416 51.8565 28.1565C51.8565 27.3714 52.0706 26.5863 52.4846 25.8298C50.0579 28.8702 48.1737 30.3833 46.7891 30.3833C46.2466 30.3833 45.8041 30.1835 45.4615 29.7981C45.1189 29.4127 44.9619 29.013 44.9619 28.5848C44.9619 28.1708 45.019 27.7426 45.1332 27.3C45.2474 26.8575 45.3759 26.4579 45.5044 26.101C45.6328 25.7441 45.8327 25.3159 46.0896 24.802C46.3465 24.2881 46.5464 23.917 46.6606 23.6743C46.7748 23.4316 46.9889 23.0891 47.2744 22.618C47.5599 22.1469 47.9167 21.5046 48.3735 20.7052C48.8303 19.9058 49.2014 19.3063 49.5012 18.9209C49.801 18.5355 50.0865 18.3356 50.372 18.3356C50.6574 18.3356 50.9001 18.4498 51.1142 18.6782C51.3284 18.9066 51.4425 19.1065 51.4425 19.2492C51.4425 19.392 51.1142 20.0486 50.4576 21.2191C48.5306 24.7164 47.5599 26.7433 47.5599 27.3286C47.5599 27.4713 47.617 27.5427 47.7169 27.5427C48.1879 27.5427 49.3585 26.5292 51.2142 24.5022C53.0699 22.4753 54.1547 21.1763 54.4545 20.6053C54.7542 20.0343 55.0255 19.549 55.311 19.1636C55.5822 18.7782 55.7963 18.5355 55.939 18.4498C56.353 18.1786 56.8954 18.0359 57.5663 18.0073C57.6805 18.0073 57.7519 18.0073 57.809 18.0216C57.8661 18.0359 57.9375 18.1215 58.0088 18.2643C58.0802 18.407 58.123 18.5355 58.123 18.6354C58.0374 18.9066 57.652 19.6346 56.9525 20.8194C56.2673 22.0042 55.8819 22.6751 55.8106 22.8178C54.6543 25.2017 54.0833 26.7576 54.0833 27.4713C54.0833 27.8853 54.2404 28.0851 54.5544 28.0851C55.1254 28.0138 55.8106 27.557 56.6099 26.7291C56.9097 26.4293 57.1952 26.1153 57.4807 25.8012C57.7662 25.4872 57.9517 25.3016 58.0088 25.2588C58.0802 25.1874 58.1659 25.1589 58.2658 25.1589Z" fill="#292F36"/>
<path d="M62.5049 21.7759C64.8031 19.1637 66.773 17.8504 68.386 17.8504C68.7857 17.8504 69.1141 17.9646 69.371 18.2073C69.6279 18.45 69.7564 18.7497 69.7564 19.1351C69.7564 19.5206 69.4852 20.1486 68.9428 21.0479C68.4003 21.933 67.9007 22.6895 67.4439 23.3033C67.2013 23.6174 66.93 23.7744 66.616 23.7744C66.3162 23.7744 66.0736 23.6602 65.9023 23.4318C65.731 23.2034 65.6453 22.9464 65.6453 22.6467C65.6453 21.9758 66.0022 21.205 66.7302 20.3628L66.7016 20.3342C66.3733 20.3628 65.5882 21.0051 64.3035 22.2327C63.0331 23.4746 61.9482 24.588 61.0489 25.5587C60.1639 26.5436 59.1932 27.7284 58.1369 29.1416C57.8372 29.5556 57.5802 29.7697 57.3661 29.7697C57.152 29.7697 56.8808 29.6983 56.5382 29.5698C56.1956 29.4414 55.9815 29.3414 55.9101 29.2843C55.8387 29.2272 55.7959 29.1273 55.7959 28.9846C55.7959 28.8561 55.8387 28.6848 55.9101 28.5135C55.9815 28.3279 56.1385 28.071 56.3383 27.7427C56.5382 27.4144 56.8665 26.8719 57.2947 26.1297C57.723 25.3874 58.3796 24.2597 59.2789 22.7609C60.1782 21.2621 60.7063 20.3485 60.8919 20.0344C61.2631 19.3921 61.5628 18.921 61.8055 18.6355C62.248 18.0788 62.9903 17.8076 64.0323 17.8076C64.2607 17.8076 64.3892 17.9504 64.3892 18.2501C64.3892 18.7069 63.9609 19.5777 63.1187 20.8338L62.5049 21.7759Z" fill="#292F36"/>
<path d="M78.2503 18.8069C78.2503 19.4493 77.9934 20.0202 77.4652 20.5056C76.9371 20.9909 76.3518 21.2336 75.6809 21.2336C75.4668 21.2336 75.324 21.1765 75.2527 21.0766C75.1813 20.9766 75.1527 20.8339 75.1527 20.6769C75.1527 20.5198 75.167 20.3485 75.2098 20.1915C74.853 20.3057 74.4675 20.4913 74.0393 20.734C73.6111 20.9766 73.0829 21.3335 72.4548 21.8188C71.8268 22.3042 71.5127 22.6468 71.5127 22.8894C71.5127 22.9608 71.6269 23.0036 71.8553 23.0036C72.0837 23.0036 72.4406 22.918 72.9116 22.7609C73.3827 22.6039 73.7253 22.5183 73.9108 22.5183C74.0964 22.5183 74.2249 22.5326 74.282 22.5468C74.4104 22.6182 74.5389 22.7609 74.6959 22.9893C74.8387 23.2177 74.9101 23.4033 74.9101 23.5318C74.9101 23.6602 74.7816 23.8315 74.5247 24.0457C74.2677 24.2598 73.9822 24.4168 73.6682 24.531C73.3399 24.6452 73.1258 24.7308 73.0258 24.7879C70.9703 25.9442 69.9425 26.7293 69.9425 27.1575C69.9425 27.9141 70.5849 28.2995 71.8839 28.2995C72.7118 28.2995 73.554 28.0425 74.3819 27.5144C75.0956 27.0719 75.738 26.6151 76.309 26.144C76.88 25.6872 77.2368 25.4017 77.3938 25.2875C77.5509 25.1733 77.6651 25.1305 77.7364 25.1305C77.9934 25.1305 78.1218 25.416 78.1218 25.987C78.1218 26.558 78.0933 26.9291 78.0219 27.1004C77.9505 27.286 77.765 27.5001 77.4367 27.7713C75.3526 29.47 73.3684 30.3264 71.5127 30.3264C70.5135 30.3264 69.7284 30.1837 69.1289 29.9125C68.0297 29.4129 67.4873 28.6563 67.4873 27.6286C67.4873 26.2868 68.4152 25.259 70.2851 24.5738C69.914 24.4025 69.6713 24.2027 69.5714 23.9315C69.4572 23.6745 69.4144 23.2606 69.4144 22.6896C69.4144 22.1186 69.6856 21.5191 70.2137 20.8767C70.7419 20.2344 71.3985 19.7062 72.1694 19.3065C73.8823 18.3787 75.4239 17.9219 76.7658 17.9219C77.0941 17.9219 77.4081 17.9932 77.7507 18.1503C78.0933 18.3073 78.2503 18.5214 78.2503 18.8069Z" fill="#292F36"/>
<path d="M111.567 8.87167H111.752C111.809 8.87167 111.852 8.87167 111.867 8.88595C111.881 8.90022 111.895 8.90022 111.924 8.9145C111.952 8.9145 111.966 8.92877 111.995 8.95732C112.038 9.00014 112.109 9.04296 112.195 9.08579C112.309 9.17144 112.366 9.27136 112.366 9.38556C112.366 9.49975 112.252 9.74242 112.024 10.1136C111.795 10.4847 111.21 11.384 110.254 12.84C108.07 16.1802 106.114 19.2921 104.387 22.147C101.403 27.1145 99.8902 29.6126 99.8617 29.6411C99.8331 29.6697 99.8188 29.6982 99.8046 29.7268C99.7903 29.7839 99.7617 29.8124 99.6904 29.8124L99.4905 29.7696L99.0908 29.8695L98.8624 29.8267L98.6198 29.8695H98.5341L97.7205 29.9837C97.2352 29.9837 96.9925 29.8124 96.9925 29.4841C96.9925 29.3414 97.0353 29.1701 97.121 28.9702C97.4207 28.2565 98.9481 25.6728 101.689 21.1906C99.8902 21.2334 98.1059 21.262 96.3501 21.262L93.2097 21.2477C92.6959 22.0756 91.9821 23.2461 91.0828 24.7735C89.1415 28.0995 88.1137 29.7696 87.9853 29.7981C87.8568 29.8267 87.7569 29.8552 87.6712 29.8552C87.5856 29.8552 87.5142 29.8124 87.4571 29.7125C87.3857 29.6268 87.3429 29.5697 87.3144 29.5697C87.2858 29.5697 87.243 29.584 87.1573 29.6268C87.086 29.6697 86.9718 29.6839 86.8148 29.6839L86.4722 29.6697L86.3437 29.584C86.3294 29.584 86.3152 29.5983 86.3009 29.6268C86.2866 29.6554 86.2438 29.6697 86.1867 29.6697C85.7727 29.6697 85.5586 29.4984 85.5586 29.1415C85.5586 28.9131 85.6442 28.5991 85.8013 28.2137C85.9726 27.8283 86.1867 27.4143 86.4579 26.9718C86.7291 26.5293 87.4143 25.4587 88.542 23.7886C89.6554 22.1184 90.2121 21.2762 90.2121 21.262C90.0265 21.2477 89.8124 21.2477 89.5697 21.2334C89.0701 21.2334 88.7275 21.2191 88.5134 21.1763C87.9567 21.0764 87.5713 20.6196 87.3715 19.806C87.2573 19.4063 87.2144 19.1493 87.2287 19.0209C87.2287 18.7639 87.3429 18.6212 87.5713 18.6212L87.9567 18.7211C88.1565 18.7354 88.6133 18.7496 89.3556 18.7925C90.0979 18.8353 90.6261 18.8496 90.9544 18.8496L91.7823 18.821C93.0527 16.8369 94.5658 14.5815 96.3359 12.0692C95.0512 13.1255 93.6237 13.6536 92.0535 13.6536C91.3112 13.6536 90.6689 13.4823 90.1407 13.1255C89.5983 12.7686 89.3413 12.3118 89.3413 11.7694C89.3413 11.227 89.5412 10.7987 89.9552 10.4704C90.3691 10.1564 90.7545 9.99936 91.1257 9.99936C91.4968 9.99936 91.6824 10.0565 91.6824 10.1707C91.6824 10.2135 91.6253 10.2563 91.5253 10.2991C91.4254 10.3562 91.3683 10.399 91.3683 10.4419C91.3683 10.5989 91.5396 10.7416 91.8822 10.8558C92.2248 10.97 92.6102 11.0414 93.0384 11.0414C93.4667 11.0414 93.9806 10.9129 94.6086 10.6703C95.2367 10.4276 95.8791 10.0993 96.55 9.71387C97.4921 9.17144 98.2344 8.71465 98.7768 8.35779C99.0908 8.20077 99.3764 8.12939 99.6618 8.12939C99.9473 8.12939 100.133 8.15794 100.261 8.22932C100.39 8.28641 100.475 8.35779 100.533 8.41489C100.59 8.47198 100.661 8.55763 100.718 8.65755C100.79 8.75748 100.847 8.84312 100.918 8.88595C100.975 8.94304 101.018 9.00014 101.018 9.07151C101.018 9.14289 100.975 9.24281 100.904 9.39983C100.832 9.54258 100.461 10.1421 99.7903 11.1841C99.1194 12.2262 98.2486 13.5537 97.1923 15.1667C96.136 16.7798 95.3652 17.9646 94.8799 18.7354C97.4921 18.7354 100.304 18.6926 103.33 18.5926C107.013 12.7829 108.955 9.74242 109.154 9.45693C109.354 9.17144 109.54 8.98587 109.711 8.90022C109.882 8.81457 110.082 8.77175 110.325 8.77175L111.567 8.87167Z" fill="#292F36"/>
<path d="M116.335 18.6068C116.635 18.6068 116.935 18.7353 117.234 19.0065C117.548 19.2777 117.691 19.6774 117.691 20.2198C117.691 20.7623 117.506 21.4617 117.12 22.3325C116.735 23.1889 116.221 24.074 115.55 24.9733C114.893 25.8583 114.151 26.7005 113.366 27.4856C112.567 28.2707 111.71 28.913 110.796 29.4127C109.869 29.9123 109.041 30.1692 108.284 30.1692C107.528 30.1692 106.928 29.9265 106.471 29.4555C106.015 28.9844 105.786 28.3278 105.786 27.4856C105.786 26.6434 106 25.7013 106.414 24.6878C106.828 23.66 107.356 22.7607 108.013 21.9756C108.67 21.1905 109.369 20.4911 110.14 19.863C111.724 18.5783 113.123 17.9502 114.322 17.9502C114.865 17.9502 115.264 18.0787 115.536 18.3499C115.636 18.4355 115.678 18.5212 115.678 18.5783V18.6639C115.835 18.6068 116.05 18.6068 116.335 18.6068ZM114.865 20.5482H114.765C114.422 20.5482 114.251 20.3055 114.251 19.8059C113.537 20.0343 112.795 20.4482 112.01 21.0335C111.225 21.6188 110.525 22.3182 109.911 23.1176C108.655 24.7163 108.027 26.0724 108.013 27.1715C108.013 27.714 108.213 27.9852 108.612 27.9852C109.012 27.9852 109.612 27.714 110.397 27.2001C111.182 26.6862 111.967 25.9297 112.752 24.9447C113.523 23.9741 114.108 23.1176 114.494 22.4039C114.879 21.6901 115.079 21.2048 115.079 20.9336C115.065 20.6766 114.993 20.5482 114.865 20.5482Z" fill="#292F36"/>
<path d="M117.376 29.8412L116.663 29.8126H116.406C116.306 29.7841 116.206 29.727 116.092 29.6413C115.977 29.5557 115.892 29.4843 115.835 29.4557C115.778 29.4272 115.749 29.3415 115.749 29.2416C115.749 29.1417 115.792 28.9561 115.863 28.7135C117.762 24.531 119.603 21.1765 121.387 18.6785C121.587 18.4073 121.901 18.1931 122.33 18.0504C122.758 17.9076 123.186 17.8363 123.6 17.8363C123.843 17.8363 123.971 18.0218 123.971 18.4073C123.971 18.5214 123.928 18.6642 123.857 18.8355C123.786 19.0211 123.586 19.3065 123.272 19.7205C122.958 20.1345 122.587 20.6055 122.158 21.1194C121.73 21.6333 121.487 21.9473 121.43 22.033C122.772 20.6484 123.971 19.6206 125.056 18.9354C126.141 18.2645 126.912 17.9219 127.397 17.9219C127.882 17.9219 128.254 18.0647 128.51 18.3359C128.767 18.6071 128.896 18.9069 128.896 19.2209C128.896 19.5349 128.867 19.8062 128.825 20.006C128.782 20.2201 128.696 20.4342 128.582 20.6626C128.468 20.891 128.368 21.0909 128.282 21.2479C128.196 21.4049 128.054 21.619 127.868 21.876C127.668 22.1329 127.54 22.3185 127.468 22.4184C127.397 22.5183 127.24 22.7039 127.012 22.9751C126.783 23.2463 126.655 23.4033 126.641 23.4319C126.912 23.1607 127.297 22.761 127.782 22.2186C128.268 21.6761 128.682 21.2336 129.024 20.8768C129.367 20.5199 129.781 20.1059 130.295 19.6491C130.809 19.1924 131.28 18.8212 131.708 18.55C132.764 17.8934 133.835 17.5508 134.92 17.5508C135.291 17.5508 135.605 17.665 135.862 17.9076C136.119 18.1503 136.247 18.4215 136.247 18.7498C136.247 19.0782 135.848 19.8633 135.062 21.0909C134.277 22.3185 133.478 23.5604 132.693 24.8022C131.908 26.0441 131.508 26.8292 131.508 27.1575C131.508 27.6001 131.594 27.8713 131.751 27.9569C131.922 28.0426 132.122 28.0711 132.35 28.0568C132.579 28.0426 132.921 27.8855 133.335 27.6001C133.763 27.3146 134.135 27.0291 134.463 26.715C135.005 26.2297 135.491 25.7586 135.962 25.3019C136.062 25.2162 136.162 25.1734 136.29 25.1734C136.476 25.1734 136.59 25.3161 136.633 25.6016C136.675 25.8871 136.69 26.1726 136.69 26.4866C136.69 26.8007 136.661 27.0005 136.604 27.1147C136.319 27.6572 135.691 28.3281 134.734 29.1274C133.763 29.9125 132.836 30.3122 131.951 30.3122C131.836 30.3122 131.765 30.3122 131.722 30.2979C130.723 30.198 130.024 29.9268 129.638 29.47C129.253 29.0132 129.067 28.4708 129.067 27.857C129.067 27.2432 129.281 26.4724 129.71 25.5873C130.138 24.7023 130.595 23.8887 131.108 23.1749C131.622 22.4612 132.079 21.8046 132.507 21.2193C132.936 20.6341 133.15 20.32 133.15 20.2772C133.15 20.2344 133.107 20.2058 133.035 20.2058C132.736 20.2058 132.065 20.6912 131.009 21.6761C129.224 23.3462 127.683 24.9593 126.384 26.5009C126.041 26.9149 125.227 27.9426 123.957 29.6128C123.814 29.8126 123.571 29.9125 123.257 29.9125C122.943 29.9125 122.615 29.8554 122.272 29.727C121.93 29.5985 121.759 29.4415 121.759 29.2559C121.759 29.156 122.529 27.7856 124.085 25.1448C125.641 22.504 126.412 21.0623 126.412 20.8339C126.412 20.5913 126.269 20.4771 125.984 20.4771C125.698 20.4771 125.099 20.9053 124.2 21.7618C121.73 24.1171 119.817 26.4724 118.461 28.7991C118.376 28.9419 118.204 29.156 117.947 29.4415C117.69 29.727 117.462 29.8412 117.376 29.8412Z" fill="#292F36"/>
<path d="M145.683 18.8069C145.683 19.4493 145.426 20.0202 144.898 20.5056C144.37 20.9909 143.784 21.2336 143.113 21.2336C142.899 21.2336 142.757 21.1765 142.685 21.0766C142.614 20.9766 142.585 20.8339 142.585 20.6769C142.585 20.5198 142.6 20.3485 142.642 20.1915C142.286 20.3057 141.9 20.4913 141.472 20.734C141.044 20.9766 140.516 21.3335 139.887 21.8188C139.259 22.3042 138.945 22.6468 138.945 22.8894C138.945 22.9608 139.06 23.0036 139.288 23.0036C139.516 23.0036 139.873 22.918 140.344 22.7609C140.815 22.6039 141.158 22.5183 141.343 22.5183C141.529 22.5183 141.657 22.5326 141.715 22.5468C141.843 22.6182 141.972 22.7609 142.129 22.9893C142.271 23.2177 142.343 23.4033 142.343 23.5318C142.343 23.6602 142.214 23.8315 141.957 24.0457C141.7 24.2598 141.415 24.4168 141.101 24.531C140.772 24.6452 140.558 24.7308 140.458 24.7879C138.403 25.9442 137.375 26.7293 137.375 27.1575C137.375 27.9141 138.017 28.2995 139.316 28.2995C140.144 28.2995 140.987 28.0425 141.815 27.5144C142.528 27.0719 143.171 26.6151 143.742 26.144C144.313 25.6872 144.669 25.4017 144.826 25.2875C144.983 25.1733 145.098 25.1305 145.169 25.1305C145.426 25.1305 145.554 25.416 145.554 25.987C145.554 26.558 145.526 26.9291 145.455 27.1004C145.383 27.286 145.198 27.5001 144.869 27.7713C142.785 29.47 140.801 30.3264 138.945 30.3264C137.946 30.3264 137.161 30.1837 136.561 29.9125C135.462 29.4129 134.92 28.6563 134.92 27.6286C134.92 26.2868 135.848 25.259 137.718 24.5738C137.347 24.4025 137.104 24.2027 137.004 23.9315C136.89 23.6745 136.847 23.2606 136.847 22.6896C136.847 22.1186 137.118 21.5191 137.646 20.8767C138.174 20.2344 138.831 19.7062 139.602 19.3065C141.315 18.3787 142.857 17.9219 144.198 17.9219C144.527 17.9219 144.841 17.9932 145.183 18.1503C145.526 18.3073 145.683 18.5214 145.683 18.8069Z" fill="#292F36"/>
<path d="M0.982422 33.795C4.73662 35.3652 8.56219 36.5785 12.4591 37.5064C16.3275 38.477 20.2673 39.1622 24.2071 39.5904C26.177 39.8617 28.1611 39.8902 30.1168 40.0758C32.1009 40.0901 34.0708 40.2471 36.0407 40.1329L38.9955 40.0615C39.9805 40.0472 40.9654 39.9188 41.9503 39.8617C42.9353 39.776 43.9202 39.7332 44.8909 39.6047L47.8172 39.1908C51.7427 38.7625 55.554 37.849 59.351 36.7498C63.1908 35.6935 66.8166 34.2946 70.6564 32.8386C74.5819 31.3969 78.8357 30.4547 83.1466 30.9115C85.2736 31.1828 87.4147 31.8679 89.1562 33.1241C90.912 34.366 92.1682 36.136 92.9675 37.9917C91.7685 36.3359 90.2696 34.9798 88.5424 34.1376C86.8152 33.2954 84.9167 32.9528 83.0324 33.0099C79.2211 33.067 75.4669 34.3374 71.9411 35.9362C68.3582 37.7062 64.4755 39.305 60.5643 40.6325C56.6245 41.9029 52.5563 42.9164 48.431 43.4303C40.2231 44.5152 31.8154 44.5294 23.7075 42.8879C19.6392 42.1456 15.6709 40.9894 11.8311 39.5191C8.01975 37.9917 4.29411 36.2074 0.982422 33.795Z" fill="#292F36"/>
<path d="M137.49 10.028C134.307 8.67192 131.067 7.6156 127.783 6.78768C124.515 5.91693 121.203 5.30313 117.877 4.87489C116.221 4.61795 114.537 4.56085 112.881 4.36101C111.211 4.31819 109.555 4.14689 107.885 4.21826C107.057 4.23254 106.215 4.23254 105.387 4.21826C104.559 4.21826 103.717 4.30391 102.889 4.33246C102.061 4.38956 101.219 4.40383 100.391 4.48948L97.9068 4.78924C94.5809 5.06046 91.3548 5.74564 88.1288 6.58784C84.8599 7.37294 81.7623 8.48635 78.4649 9.59976C75.0819 10.7275 71.4133 11.4126 67.7305 10.8987C65.9176 10.599 64.0905 9.95662 62.6487 8.81466C61.1785 7.68697 60.1792 6.14532 59.5654 4.5323C60.5789 5.94548 61.8351 7.10172 63.2768 7.81545C64.7185 8.52917 66.303 8.82894 67.8875 8.81466C71.085 8.81466 74.2539 7.7869 77.2516 6.50219C80.3063 5.04619 83.6608 3.76148 87.0011 2.70516C90.3699 1.69167 93.8814 0.920846 97.3929 0.549708C104.402 -0.192567 111.568 -0.0212732 118.434 1.60602C121.874 2.33403 125.228 3.44744 128.44 4.81779C131.666 6.2167 134.778 7.84399 137.49 10.028Z" fill="#292F36"/>
</svg>
