<svg width="103" height="103" viewBox="0 0 103 103" fill="none" xmlns="http://www.w3.org/2000/svg">
<path d="M51.4433 101.606C79.3039 101.606 101.889 79.0207 101.889 51.1601C101.889 23.2994 79.3039 0.713867 51.4433 0.713867C23.5826 0.713867 0.99707 23.2994 0.99707 51.1601C0.99707 79.0207 23.5826 101.606 51.4433 101.606Z" fill="white"/>
<path d="M51.4431 102.32C23.2367 102.32 0.283203 79.3664 0.283203 51.1599C0.283203 22.9535 23.2367 0 51.4431 0C79.6496 0 102.603 22.9535 102.603 51.1599C102.603 79.3664 79.6496 102.32 51.4431 102.32ZM51.4431 1.42745C24.0218 1.42745 1.71066 23.7386 1.71066 51.1599C1.71066 78.5813 24.0218 100.892 51.4431 100.892C78.8645 100.892 101.176 78.5813 101.176 51.1599C101.176 23.7386 78.8645 1.42745 51.4431 1.42745Z" fill="#292F36"/>
<path d="M58.638 5.83827C58.9806 5.86682 59.2804 5.88109 59.5231 5.88109L59.4945 6.10949C59.0948 6.16658 58.7522 6.46635 58.481 7.03733L55.0837 13.832L54.9837 13.8177L54.8981 13.8035L52.7426 6.22368C52.5999 5.72407 52.3572 5.45286 52.0146 5.41003L52.0432 5.18164C52.3572 5.23874 52.7712 5.28156 53.2851 5.33866C53.956 5.39576 54.4556 5.43858 54.7839 5.43858L54.7554 5.66697C54.4556 5.6527 54.2415 5.66697 54.113 5.7098C53.9845 5.75262 53.9132 5.86682 53.8989 6.00956C53.8846 6.13803 53.9132 6.3236 53.9845 6.56627L55.569 12.3617L57.9243 7.62259C58.1241 7.23717 58.2241 6.92313 58.2526 6.69474C58.2812 6.45207 58.2098 6.26651 58.0528 6.13803C57.8958 6.00956 57.6388 5.93819 57.2962 5.89537L57.3248 5.66697C57.7387 5.73835 58.1812 5.79545 58.638 5.83827Z" fill="#292F36"/>
<path d="M68.2301 8.85046C68.0873 8.85046 67.9731 8.90756 67.8875 9.02175C67.8019 9.13595 67.7019 9.32152 67.602 9.59273L65.5607 15.0171C65.4608 15.2883 65.4037 15.5024 65.4037 15.6451C65.4037 15.7879 65.4466 15.9021 65.5465 15.9877C65.6464 16.0734 65.832 16.1733 66.0889 16.2875L66.0033 16.5016C65.6749 16.3589 65.2182 16.1733 64.6329 15.9449C64.0048 15.7022 63.5338 15.5452 63.2197 15.4453L63.3054 15.2312C63.5766 15.3168 63.7764 15.3596 63.9049 15.3596C64.0334 15.3596 64.1618 15.3025 64.2475 15.1884C64.3331 15.0742 64.4331 14.8886 64.533 14.6174L66.5742 9.19305C66.6742 8.92183 66.7313 8.70771 66.7313 8.56497C66.7313 8.42222 66.6884 8.30803 66.5885 8.22238C66.4886 8.13673 66.303 8.03681 66.0461 7.92261L66.1317 7.7085C66.4315 7.83697 66.8883 8.02254 67.5164 8.2652C68.1016 8.4936 68.5727 8.65062 68.9153 8.75054L68.8296 8.96466C68.5727 8.87901 68.3728 8.83618 68.2301 8.85046Z" fill="#292F36"/>
<path d="M80.9347 16.4015C80.792 16.373 80.6492 16.4158 80.5208 16.5014C80.3923 16.5871 80.2353 16.7584 80.064 17.001L75.9244 22.6109L75.7102 22.4539L76.2669 13.4324L72.5984 18.3999C72.4271 18.6426 72.3129 18.8424 72.2558 18.9995C72.1987 19.1565 72.2273 19.2992 72.2986 19.442C72.37 19.5847 72.5413 19.7417 72.784 19.9416L72.6412 20.1272C72.4271 19.9416 72.1131 19.6989 71.6991 19.3849C71.328 19.1137 71.0282 18.8995 70.7998 18.7711L70.9425 18.5855C71.1709 18.7425 71.3565 18.8282 71.4993 18.8424C71.642 18.871 71.7847 18.8282 71.9132 18.7425C72.0417 18.6426 72.1987 18.4856 72.37 18.2429L75.7388 13.6751C75.9101 13.4324 76.0243 13.2468 76.0671 13.1184C76.1099 12.9899 76.0957 12.8614 76.0243 12.7472C75.9529 12.633 75.8102 12.4903 75.5818 12.3047L75.7245 12.1191C75.9101 12.2904 76.1956 12.5188 76.581 12.79C76.8665 13.0042 77.1091 13.1755 77.3375 13.3039L76.8808 20.8694L79.8499 16.844C80.0212 16.6013 80.1496 16.4015 80.1924 16.2445C80.2353 16.0875 80.221 15.9447 80.1496 15.802C80.0783 15.6592 79.907 15.4879 79.6643 15.3024L79.807 15.1168C80.0212 15.3024 80.3352 15.545 80.7492 15.8591C81.1203 16.1303 81.4201 16.3444 81.6484 16.4729L81.5057 16.6584C81.263 16.5157 81.0775 16.4158 80.9347 16.4015Z" fill="#292F36"/>
<path d="M85.716 22.8391C86.0871 22.5679 86.4725 22.2681 86.8865 21.897C87.2434 22.4394 87.8715 23.3387 88.7708 24.6091C89.67 25.8653 90.3124 26.7503 90.6978 27.2642C90.2125 27.5497 89.7985 27.8066 89.4274 28.0636C89.1133 28.292 88.8564 28.4918 88.6708 28.6488L88.5138 28.4347C88.9706 28.035 89.2846 27.7067 89.4702 27.464C89.6558 27.2214 89.7271 26.9644 89.7129 26.6932C89.6986 26.422 89.5273 26.0937 89.2561 25.694L88.8849 25.1801L83.4749 29.0342C83.218 29.2198 83.0324 29.3911 82.9467 29.5196C82.8611 29.648 82.8325 29.8051 82.8896 29.9764C82.9325 30.1334 83.0609 30.3618 83.2465 30.6473L83.0609 30.79C82.8468 30.4474 82.5185 29.9621 82.0903 29.3768C81.6335 28.7345 81.2909 28.2777 81.0625 27.9922L81.2481 27.8495C81.4622 28.1207 81.6335 28.3062 81.7762 28.4062C81.919 28.5061 82.0617 28.5346 82.2187 28.4918C82.3758 28.449 82.5899 28.3348 82.8468 28.1492L88.2569 24.2951L87.8857 23.7812C87.6002 23.3815 87.3433 23.1389 87.1006 23.0247C86.858 22.9105 86.5867 22.8962 86.3013 22.9961C86.0158 23.096 85.6018 23.2816 85.0736 23.5814L84.9166 23.3673C85.1307 23.2531 85.3877 23.0818 85.716 22.8391Z" fill="#292F36"/>
<path d="M88.4568 42.6523L88.2284 42.7237C88.1428 42.4096 88.0286 42.0099 87.8573 41.5246C87.6432 40.8965 87.4719 40.4255 87.3434 40.1114L87.5718 40.04C87.6717 40.3113 87.7859 40.5111 87.8716 40.611C87.9715 40.711 88.1 40.7395 88.2427 40.6824C88.3712 40.6396 88.5282 40.5397 88.7138 40.3826L90.2982 39.0837L89.3989 36.4143L88.0714 36.3572C87.6432 36.3287 87.3149 36.3572 87.0865 36.4429C86.8581 36.5285 86.7153 36.657 86.6582 36.8426C86.6154 37.0281 86.644 37.2993 86.7439 37.6277L86.5155 37.699C86.4013 37.2708 86.2585 36.8426 86.1158 36.4143C86.0016 36.086 85.9017 35.8148 85.8018 35.6007L86.0302 35.5293C86.23 35.8719 86.6582 36.0575 87.2863 36.0717L94.8804 36.4143L94.9375 36.5856L88.8851 41.6245C88.5139 41.9814 88.3712 42.3097 88.4568 42.6523ZM93.4101 36.5856L89.6702 36.4286L90.5124 38.9409L93.4101 36.5856Z" fill="#292F36"/>
<path d="M89.4993 53.5726C89.6421 53.5155 89.7134 53.4442 89.7134 53.3442C89.7134 53.2871 89.6992 53.2443 89.6706 53.2015C89.6421 53.1587 89.585 53.073 89.4993 52.9588C89.2852 52.6876 89.1282 52.4021 89.014 52.1166C88.8998 51.8311 88.8427 51.5028 88.8427 51.146C88.8284 50.3466 88.9854 49.6614 89.2995 49.0762C89.6278 48.4909 90.0846 48.0484 90.7127 47.7344C91.3265 47.4203 92.0687 47.2633 92.9395 47.249C93.8388 47.2347 94.6239 47.3775 95.2948 47.6915C95.9657 48.0056 96.4938 48.4338 96.865 49.0048C97.2361 49.5758 97.436 50.2181 97.436 50.9319C97.436 51.2459 97.4074 51.5314 97.3503 51.774C97.2932 52.0167 97.2076 52.2308 97.1076 52.4164C97.0077 52.602 96.8793 52.8161 96.708 53.0445C96.6366 53.1444 96.5938 53.2301 96.5938 53.2872C96.5938 53.4299 96.8364 53.5298 97.3075 53.5726V53.8439C96.8079 53.8153 95.9086 53.8153 94.6239 53.8439V53.5726C95.0378 53.5013 95.3804 53.4156 95.6516 53.33C95.9229 53.2443 96.1513 53.1159 96.3511 52.9588C96.6223 52.7304 96.8507 52.4307 97.0077 52.0595C97.1647 51.6884 97.2361 51.3173 97.2361 50.9176C97.2218 50.4037 97.0506 49.9612 96.708 49.5758C96.3654 49.1904 95.88 48.9049 95.2662 48.6908C94.6382 48.4909 93.9244 48.391 93.0965 48.4053C92.1544 48.4195 91.3978 48.5337 90.7983 48.7478C90.1988 48.962 89.7705 49.276 89.485 49.69C89.1996 50.1039 89.0711 50.6321 89.0854 51.2744C89.0996 51.7455 89.2281 52.1452 89.4708 52.4878C89.5707 52.6305 89.6563 52.7162 89.7563 52.759C89.8419 52.8018 89.9704 52.8161 90.1274 52.8161L91.2551 52.8018C91.5834 52.8018 91.8118 52.759 91.9688 52.7019C92.1116 52.6448 92.2258 52.5306 92.2686 52.3593C92.3257 52.2023 92.3542 51.9453 92.3542 51.6028H92.5826C92.5683 51.9882 92.5541 52.5306 92.5683 53.2586C92.5826 53.801 92.5969 54.215 92.6254 54.4719H92.397C92.3828 54.2864 92.3399 54.1579 92.2971 54.0865C92.2543 54.0152 92.1544 53.9581 92.0259 53.9295C91.8974 53.901 91.6833 53.8867 91.3836 53.901L89.0711 53.9438V53.7154C89.1996 53.6583 89.3566 53.6297 89.4993 53.5726Z" fill="#292F36"/>
<path d="M87.8007 65.7197C87.3868 65.5912 86.9014 65.4628 86.3447 65.3486C86.5303 64.849 86.8015 64.0068 87.1869 62.8077C87.6437 61.3802 87.972 60.2954 88.1719 59.5674L88.4003 59.6388C88.3289 59.91 88.3003 60.1098 88.3003 60.2526C88.3146 60.3953 88.3717 60.4952 88.4859 60.5809C88.6001 60.6665 88.7999 60.7522 89.0712 60.8378L94.5954 62.5793C94.8809 62.665 95.0807 62.7078 95.2235 62.7078C95.3662 62.7078 95.4804 62.6507 95.5661 62.5365C95.6517 62.4223 95.7374 62.2367 95.8373 61.9798L96.0657 62.0512C95.8087 62.7792 95.4662 63.8497 95.0094 65.2772C94.6668 66.3621 94.4241 67.1472 94.3099 67.6182C93.8389 67.4184 93.4106 67.2471 93.0109 67.1329C92.7254 67.0472 92.4828 66.9759 92.3115 66.9473L92.3971 66.6904C92.8967 66.7903 93.2822 66.8331 93.5391 66.8331C93.796 66.8331 94.0101 66.7475 94.1814 66.5762C94.3527 66.4192 94.4955 66.1337 94.624 65.7483L94.9094 64.8204C94.9951 64.5492 95.0379 64.3494 95.0236 64.2209C95.0094 64.0924 94.9665 63.9782 94.8523 63.8926C94.7382 63.8069 94.5526 63.7213 94.2671 63.6356L91.6406 62.8077L91.4122 63.55C91.298 63.9211 91.3265 64.2066 91.5121 64.4064C91.6977 64.6063 91.8975 64.749 92.1259 64.849C92.3543 64.9489 92.497 65.0203 92.5541 65.0488L92.4685 65.3057C92.1116 65.163 91.769 65.0345 91.4265 64.9346L90.8983 64.7776C90.5272 64.6634 89.9847 64.5064 89.2996 64.3494L89.3852 64.0924C89.4423 64.1067 89.6279 64.1352 89.9419 64.2066C90.2559 64.2637 90.5272 64.2352 90.7413 64.121C90.9554 64.0068 91.0981 63.7926 91.1981 63.4929L91.4265 62.7506L88.7428 61.9084C88.4574 61.8228 88.2575 61.7799 88.1148 61.7799C87.972 61.7799 87.8578 61.837 87.7865 61.9512C87.7008 62.0654 87.6152 62.251 87.5295 62.5222L87.2726 63.3359C87.1298 63.8069 87.0727 64.1781 87.1298 64.4493C87.1726 64.7348 87.3154 64.9632 87.5581 65.163C87.8007 65.3486 88.1719 65.5627 88.6715 65.7911L88.5858 66.048C88.4145 65.9196 88.1433 65.8339 87.8007 65.7197Z" fill="#292F36"/>
<path d="M83.7326 83.2349C83.7897 83.1064 83.7755 82.978 83.7184 82.8495C83.6613 82.721 83.5185 82.564 83.3044 82.3499L79.1077 78.3387C78.8936 78.1389 78.7223 78.0104 78.5938 77.9533C78.4653 77.8962 78.3369 77.8962 78.2084 77.9533C78.0799 78.0104 77.9229 78.1389 77.7231 78.3387L77.5518 78.1817C77.823 77.939 78.1656 77.5822 78.6081 77.1397C79.0649 76.6543 79.4074 76.2832 79.6216 76.0405L79.7929 76.1975C79.6073 76.4117 79.4931 76.583 79.436 76.6972C79.3789 76.8256 79.3932 76.9541 79.4503 77.0826C79.5074 77.211 79.6501 77.3681 79.8642 77.5822L84.0609 81.5933C84.2751 81.7932 84.4464 81.9216 84.5748 81.9787C84.7033 82.0358 84.8318 82.0358 84.9602 81.9787C85.0887 81.9216 85.2457 81.7932 85.4456 81.5933L85.6169 81.7503C85.3742 81.9645 85.0173 82.3213 84.5606 82.8067C84.118 83.2634 83.7897 83.6346 83.5613 83.9058L83.39 83.7488C83.5613 83.5347 83.6755 83.3634 83.7326 83.2349Z" fill="#292F36"/>
<path d="M71.8421 91.9425C71.9277 91.814 71.942 91.6855 71.9135 91.5285C71.8849 91.3715 71.785 91.1717 71.628 90.9004L68.0879 84.8909L68.3163 84.7481L76.3957 88.7878L73.2695 83.4777C73.1125 83.2207 72.9841 83.0352 72.8556 82.9352C72.7271 82.8353 72.5844 82.7925 72.4274 82.8068C72.2703 82.821 72.0562 82.9067 71.785 83.0494L71.6565 82.8496C71.9135 82.7354 72.2561 82.5356 72.6986 82.2786C73.0983 82.0359 73.398 81.8504 73.6121 81.6934L73.7263 81.8932C73.4979 82.0359 73.3409 82.1787 73.2695 82.3072C73.1839 82.4356 73.1696 82.5641 73.1982 82.7211C73.2267 82.8781 73.3266 83.078 73.4837 83.3492L76.3671 88.2454C76.5099 88.5023 76.6383 88.6736 76.7525 88.7593C76.8667 88.8449 76.9809 88.8877 77.1237 88.8592C77.2521 88.8306 77.452 88.7593 77.6947 88.6308L77.8089 88.8306C77.5805 88.9448 77.2664 89.1161 76.8525 89.3588C76.5527 89.5301 76.2957 89.7014 76.0816 89.8441L69.3012 86.4611L71.8421 90.772C71.9991 91.0289 72.1276 91.2145 72.2561 91.3144C72.3702 91.4143 72.513 91.4571 72.6843 91.4429C72.8556 91.4286 73.0697 91.3429 73.3409 91.2002L73.4551 91.4C73.1982 91.5142 72.8556 91.7141 72.4131 91.971C72.0134 92.2137 71.7136 92.3993 71.4995 92.5563L71.3853 92.3564C71.5994 92.1994 71.7564 92.0567 71.8421 91.9425Z" fill="#292F36"/>
<path d="M63.9906 93.8122C64.0906 94.2547 64.219 94.74 64.3903 95.2539C63.748 95.3681 62.6774 95.5965 61.1643 95.9105C59.6512 96.2388 58.5949 96.4815 57.9668 96.6385C57.8954 96.0818 57.824 95.5965 57.7241 95.154C57.6385 94.7686 57.5671 94.4545 57.4814 94.2261L57.7384 94.169C57.924 94.7543 58.0953 95.1682 58.2523 95.4395C58.4093 95.7107 58.6091 95.882 58.8661 95.9676C59.123 96.0533 59.4942 96.039 59.9652 95.9391L60.579 95.8106L59.1801 89.3157C59.1087 89.0016 59.0374 88.7732 58.9374 88.6448C58.8375 88.5163 58.7233 88.4307 58.552 88.4164C58.3807 88.3878 58.1238 88.4164 57.7812 88.4735L57.7384 88.2451C58.1381 88.188 58.7091 88.0738 59.4228 87.9168C60.1793 87.7455 60.7503 87.617 61.1072 87.5171L61.15 87.7455C60.8074 87.8311 60.579 87.9168 60.4363 88.0024C60.2935 88.0881 60.2079 88.2165 60.1793 88.3736C60.1508 88.5306 60.1651 88.7732 60.2364 89.0873L61.6353 95.5822L62.2491 95.4537C62.7202 95.3538 63.0628 95.2111 63.2626 95.0255C63.4625 94.8399 63.5767 94.5973 63.6052 94.2975C63.6338 93.9977 63.6195 93.5409 63.5481 92.9414L63.8051 92.8843C63.8479 93.1127 63.905 93.4267 63.9906 93.8122Z" fill="#292F36"/>
<path d="M45.0487 89.8011C45.0916 89.3586 45.1058 88.859 45.1058 88.3022C45.634 88.3736 46.519 88.4593 47.7752 88.5735C49.2597 88.7019 50.3874 88.8019 51.1582 88.8447L51.144 89.0731C50.8585 89.0588 50.6586 89.0731 50.5302 89.1159C50.4017 89.1587 50.3018 89.2301 50.2447 89.3586C50.1876 89.487 50.1447 89.7012 50.1162 89.9866L49.6023 95.7678C49.5738 96.0533 49.588 96.2674 49.6166 96.4102C49.6451 96.5529 49.7308 96.6528 49.8592 96.7099C49.9877 96.767 50.1876 96.8241 50.4588 96.8527L50.4445 97.0811C49.688 96.9954 48.5603 96.8812 47.0757 96.7528C45.9337 96.6528 45.1201 96.5958 44.6348 96.5672C44.7347 96.0676 44.8061 95.6108 44.8346 95.1968C44.8632 94.8971 44.8774 94.6544 44.8632 94.4688L45.1344 94.4974C45.1486 95.0113 45.1772 95.3824 45.2486 95.6394C45.3057 95.8963 45.4341 96.0819 45.634 96.2103C45.8196 96.3388 46.1336 96.4245 46.5333 96.453L47.504 96.5386C47.7894 96.5672 47.9893 96.5529 48.1178 96.5244C48.2462 96.4958 48.3461 96.4102 48.4032 96.2817C48.4603 96.1532 48.5032 95.9391 48.5317 95.6536L48.7744 92.9129L48.0036 92.8415C47.6181 92.813 47.3469 92.8986 47.1899 93.127C47.0472 93.3554 46.933 93.5838 46.8901 93.8265C46.833 94.0692 46.8045 94.2262 46.7902 94.2975L46.519 94.269C46.5761 93.8836 46.6189 93.5267 46.6618 93.1699L46.7046 92.6132C46.7331 92.2135 46.7617 91.671 46.7902 90.9573L47.0614 90.9859C47.0614 91.043 47.0757 91.2285 47.0757 91.5568C47.09 91.8852 47.1614 92.1421 47.3327 92.3134C47.4897 92.499 47.7323 92.5989 48.0464 92.6274L48.8172 92.6988L49.0599 89.901C49.0884 89.6155 49.0741 89.4014 49.0456 89.2586C49.017 89.1302 48.9314 89.0302 48.8029 88.9732C48.6745 88.9161 48.4746 88.8732 48.2034 88.8447L47.3469 88.7733C46.8616 88.7305 46.4905 88.759 46.2192 88.8732C45.9623 88.9731 45.7625 89.173 45.6197 89.4442C45.477 89.7154 45.3628 90.1294 45.2486 90.6718L44.9774 90.6433C44.9774 90.4292 45.0059 90.1437 45.0487 89.8011Z" fill="#292F36"/>
<path d="M33.8147 84.5051C34.0288 84.4622 34.2715 84.5051 34.5284 84.6193C34.8282 84.7477 35.028 84.9333 35.1422 85.176C35.2564 85.4329 35.2707 85.7898 35.1993 86.2608L34.9852 87.4313C34.9138 87.8453 34.871 88.1593 34.8567 88.402C34.8425 88.6304 34.8996 88.8445 34.9995 89.0301C35.0994 89.2157 35.285 89.3584 35.5562 89.4726L36.584 89.9008L37.626 87.4171C37.7402 87.1458 37.7973 86.946 37.8116 86.8033C37.8258 86.6605 37.7687 86.5463 37.6688 86.4464C37.5689 86.3465 37.3976 86.2466 37.1407 86.1324L37.2263 85.9182C37.5546 86.0753 37.9971 86.2751 38.5824 86.5178C39.1962 86.7747 39.6673 86.9603 39.9813 87.0602L39.8957 87.2743C39.6244 87.1744 39.4246 87.1316 39.2961 87.1173C39.1534 87.1173 39.0392 87.1601 38.9535 87.2743C38.8536 87.3742 38.7537 87.5598 38.6395 87.831L36.3984 93.184C36.2842 93.4552 36.2271 93.655 36.2128 93.7978C36.1985 93.9405 36.2556 94.0547 36.3556 94.1546C36.4555 94.2546 36.6268 94.3545 36.8837 94.483L36.7981 94.6971C36.4983 94.5543 36.0701 94.3545 35.4991 94.1118C35.2136 93.9976 34.9138 93.8692 34.5712 93.7264C34.2287 93.5837 34.0003 93.498 33.8718 93.4409C33.3151 93.1982 32.8726 92.927 32.5443 92.5987C32.216 92.2704 32.0304 91.9278 31.9447 91.5567C31.8591 91.1855 31.9019 90.8287 32.0589 90.4718C32.1731 90.1863 32.3587 89.9294 32.6156 89.701C32.8726 89.4726 33.2009 89.3013 33.6006 89.2157C34.0003 89.13 34.4856 89.1443 35.0138 89.2728L34.8853 89.2014C34.5855 89.0158 34.3571 88.8302 34.2144 88.6304C34.0716 88.4448 33.9717 88.2307 33.9432 88.0023C33.9003 87.7739 33.9146 87.4884 33.9717 87.1458L34.1716 85.9325C34.2144 85.6898 34.2429 85.5043 34.2429 85.3615C34.2429 85.2188 34.2287 85.1046 34.1858 85.0189C34.143 84.9333 34.0716 84.8619 33.9717 84.8334C33.8575 84.7763 33.7433 84.7763 33.6434 84.8048C33.5435 84.8334 33.4007 84.9047 33.2152 85.0047L33.101 84.8191C33.3579 84.6621 33.6006 84.5479 33.8147 84.5051ZM34.5284 89.5868C34.1858 89.6296 33.9146 89.7581 33.7005 89.9722C33.4864 90.1863 33.3008 90.4718 33.1438 90.843C32.9011 91.4282 32.844 91.9421 33.0011 92.356C33.1581 92.77 33.5435 93.1126 34.1858 93.3838C34.4142 93.4837 34.5855 93.5266 34.7283 93.5123C34.8567 93.5123 34.9709 93.4552 35.0709 93.341C35.1708 93.2268 35.2707 93.0412 35.3706 92.7843L36.484 90.1292L35.756 89.8295C35.285 89.6296 34.871 89.544 34.5284 89.5868Z" fill="#292F36"/>
<path d="M22.6803 86.4467C22.8088 86.4896 22.9372 86.461 23.0514 86.3896C23.1656 86.3183 23.3226 86.1613 23.5082 85.9329L27.0911 81.365C27.2767 81.1366 27.3909 80.951 27.4337 80.8226C27.4765 80.6941 27.4623 80.5656 27.3909 80.4514C27.3195 80.3372 27.1768 80.1802 26.9627 79.9947L27.1054 79.8091C27.3766 80.0517 27.7478 80.3658 28.2474 80.7512C28.7755 81.1652 29.1752 81.4649 29.4464 81.6505L29.3037 81.8361C29.0753 81.6648 28.8897 81.5648 28.7612 81.5363C28.6328 81.4935 28.5043 81.5078 28.3901 81.5934C28.2759 81.6648 28.1189 81.8218 27.9333 82.0502L24.3504 86.618C24.1648 86.8464 24.0507 87.032 24.0078 87.1605C23.965 87.2889 23.9793 87.4174 24.0506 87.5316C24.122 87.6458 24.2648 87.8028 24.4789 87.9884L24.3361 88.174C24.0935 87.9598 23.7081 87.6458 23.1799 87.2176C22.6803 86.8322 22.2806 86.5324 21.9951 86.3325L22.1379 86.147C22.3805 86.304 22.5518 86.4039 22.6803 86.4467Z" fill="#292F36"/>
<path d="M13.4586 76.2832C13.4015 75.6409 13.5442 74.9985 13.8725 74.3847C14.2151 73.7566 14.729 73.1999 15.4427 72.6717C16.1422 72.1721 16.8416 71.8438 17.5696 71.7154C18.2976 71.5869 18.9685 71.6297 19.5966 71.8724C20.2247 72.115 20.7529 72.529 21.1668 73.1143C21.6093 73.7138 21.852 74.3419 21.9091 74.9842C21.9662 75.6266 21.8234 76.2689 21.4951 76.8827C21.1525 77.5108 20.6387 78.0675 19.9249 78.5957C19.2255 79.0953 18.526 79.4236 17.798 79.5521C17.0843 79.6805 16.3991 79.6377 15.771 79.3951C15.143 79.1524 14.6148 78.7384 14.2008 78.1674C13.7583 77.5536 13.5157 76.9256 13.4586 76.2832ZM15.5997 78.8241C16.0994 78.924 16.6703 78.8812 17.2984 78.6813C17.9265 78.4815 18.5546 78.1532 19.2112 77.6678C19.8678 77.1968 20.3817 76.6829 20.7386 76.1405C21.1097 75.598 21.3096 75.0556 21.3381 74.5417C21.3809 74.0278 21.2525 73.571 20.9812 73.1856C20.6815 72.7859 20.2961 72.529 19.7822 72.4291C19.2826 72.3292 18.7116 72.372 18.0835 72.5718C17.4554 72.7717 16.8274 73.1 16.1707 73.571C15.5141 74.0421 15.0002 74.556 14.6434 75.1127C14.2722 75.6551 14.0724 76.1833 14.0295 76.7114C13.9867 77.2253 14.1152 77.6821 14.3864 78.0675C14.6862 78.4672 15.0859 78.7242 15.5997 78.8241Z" fill="#292F36"/>
<path d="M14.5577 59.0965C14.729 59.225 14.8574 59.4391 14.9431 59.7246C15.043 60.0243 15.0287 60.3098 14.9145 60.5525C14.8003 60.8094 14.5291 61.0521 14.1152 61.2948L13.0731 61.88C12.7163 62.0941 12.445 62.2654 12.2595 62.4082C12.0739 62.5509 11.9454 62.7222 11.8741 62.9221C11.8027 63.1219 11.8027 63.3503 11.8883 63.6358L12.2167 64.7064L14.7861 63.907C15.0716 63.8214 15.2571 63.7357 15.3713 63.6501C15.4855 63.5644 15.5426 63.4502 15.5569 63.3218C15.5712 63.1933 15.5283 62.9792 15.457 62.708L15.6854 62.6366C15.771 62.9792 15.8995 63.4645 16.0993 64.064C16.2992 64.7064 16.4562 65.1774 16.5704 65.4772L16.342 65.5486C16.2421 65.2774 16.1564 65.0918 16.0708 64.9919C15.9851 64.892 15.8709 64.8206 15.7282 64.8206C15.5854 64.8206 15.3713 64.8491 15.1001 64.9491L9.56159 66.662C9.2761 66.7476 9.09053 66.8333 8.97633 66.9189C8.86214 67.0046 8.80504 67.1188 8.79077 67.2473C8.77649 67.39 8.81931 67.5898 8.89069 67.8611L8.66229 67.9324C8.59092 67.6184 8.46245 67.1616 8.27688 66.5621C8.19123 66.2766 8.07704 65.9483 7.96284 65.6057C7.84865 65.2631 7.763 65.0204 7.72018 64.892C7.53461 64.3067 7.47751 63.7928 7.52033 63.336C7.56316 62.8792 7.7059 62.5081 7.93429 62.2083C8.16269 61.9086 8.46245 61.7087 8.83359 61.5945C9.11908 61.5089 9.43312 61.4803 9.77571 61.5232C10.1183 61.566 10.4466 61.7087 10.7892 61.9657C11.1318 62.2226 11.4173 62.5938 11.6599 63.0934L11.6457 62.9506C11.6028 62.5938 11.5886 62.3083 11.6457 62.0656C11.7028 61.8229 11.8027 61.6231 11.9454 61.4518C12.1025 61.2805 12.3308 61.0949 12.6306 60.9236L13.6869 60.2956C13.901 60.1814 14.0723 60.0672 14.1723 59.9815C14.2722 59.8959 14.3578 59.8102 14.4007 59.7246C14.4435 59.6389 14.4435 59.539 14.4149 59.4391C14.3721 59.3106 14.315 59.225 14.2294 59.1679C14.1437 59.1108 14.001 59.0394 13.8011 58.968L13.8725 58.7539C14.158 58.8538 14.4007 58.968 14.5577 59.0965ZM11.1461 62.9221C10.9034 62.6937 10.6179 62.5652 10.3181 62.5367C10.0184 62.5081 9.67579 62.5509 9.29037 62.6794C8.67657 62.865 8.26261 63.1647 8.03421 63.5502C7.80582 63.9356 7.80582 64.4637 8.00567 65.1061C8.07704 65.3345 8.16269 65.5058 8.24833 65.6057C8.33398 65.7056 8.46245 65.7627 8.6052 65.7627C8.74794 65.7627 8.96206 65.7199 9.219 65.6485L11.9597 64.792L11.7313 64.0355C11.5886 63.5216 11.3887 63.1505 11.1461 62.9221Z" fill="#292F36"/>
<path d="M13.4587 45.5499C14.0012 45.3072 14.3295 44.8505 14.4722 44.1653C14.5151 43.9083 14.5151 43.6514 14.4437 43.4087C14.3723 43.1661 14.2438 42.9519 14.044 42.7664C13.8442 42.5808 13.5729 42.4523 13.2161 42.3952C12.9163 42.3381 12.6451 42.3667 12.3882 42.4666C12.1312 42.5665 11.8743 42.7236 11.6316 42.9377C11.3889 43.1518 11.1035 43.4373 10.7894 43.7941C10.4325 44.1938 10.1185 44.5221 9.84729 44.7505C9.57608 44.9932 9.27631 45.1645 8.948 45.293C8.61968 45.4214 8.24854 45.4357 7.83458 45.3643C7.40635 45.2787 7.04948 45.1217 6.79254 44.8647C6.5356 44.6078 6.35003 44.308 6.26438 43.9512C6.17874 43.5943 6.17874 43.2232 6.25011 42.8235C6.29293 42.5808 6.35003 42.3952 6.4214 42.2239C6.49278 42.0527 6.56415 41.9242 6.6498 41.8243C6.73544 41.7243 6.82109 41.6101 6.93529 41.4959C7.07803 41.3389 7.1494 41.2247 7.17795 41.1391C7.19223 41.0677 7.16368 41.0106 7.09231 40.9535C7.02093 40.8964 6.89246 40.8536 6.72117 40.7965L6.76399 40.5396C7.2065 40.6537 7.97733 40.825 9.10502 41.0392L9.06219 41.2961C8.66251 41.2533 8.29137 41.2676 7.92023 41.3532C7.56337 41.4246 7.24933 41.5816 6.99238 41.8243C6.73544 42.0527 6.56415 42.381 6.49278 42.7807C6.43568 43.0519 6.44995 43.2945 6.52133 43.5372C6.5927 43.7799 6.72117 43.9654 6.89246 44.1225C7.07803 44.2795 7.29215 44.3794 7.54909 44.4365C7.96305 44.5079 8.31992 44.4508 8.61968 44.2509C8.91945 44.0511 9.20494 43.7941 9.47615 43.4944C9.74737 43.1946 9.91867 42.9948 10.0186 42.8948C10.4183 42.4666 10.7466 42.1383 11.0178 41.8956C11.289 41.653 11.5888 41.4817 11.9171 41.3675C12.2454 41.2533 12.6023 41.239 12.9877 41.3104C13.4587 41.396 13.8442 41.5816 14.1297 41.8528C14.4151 42.1383 14.6007 42.4666 14.7006 42.8663C14.8006 43.266 14.8006 43.6942 14.7149 44.151C14.6435 44.5221 14.5579 44.8076 14.4294 45.036C14.3152 45.2644 14.1582 45.4643 13.9869 45.6498C13.8442 45.8069 13.7728 45.9211 13.7442 46.0067C13.73 46.0781 13.7585 46.1352 13.8299 46.1923C13.9013 46.2494 14.0297 46.3065 14.201 46.3493L14.1582 46.6062C13.7442 46.492 12.8307 46.3065 11.4175 46.0495L11.4603 45.7926C12.2597 45.864 12.9163 45.7926 13.4587 45.5499Z" fill="#292F36"/>
<path d="M10.6321 33.5165C10.2324 33.3024 9.7756 33.1026 9.26172 32.9027C9.57576 32.346 10.1039 31.3754 10.8176 29.9907C11.5314 28.6204 12.031 27.6497 12.3022 27.0645C12.7733 27.3642 13.2015 27.6212 13.5869 27.821C13.9295 28.0066 14.2293 28.135 14.4577 28.235L14.3292 28.4776C13.7582 28.2492 13.33 28.1065 13.0302 28.0637C12.7304 28.0066 12.4592 28.0637 12.2308 28.2064C12.0024 28.3492 11.774 28.6347 11.5599 29.0629L11.2744 29.6339L17.1698 32.7029C17.4553 32.8599 17.6837 32.9313 17.8407 32.9456C17.9977 32.9598 18.1405 32.917 18.269 32.8028C18.3974 32.6886 18.5402 32.4745 18.7115 32.1747L18.9256 32.2889C18.7115 32.6458 18.4402 33.1454 18.0977 33.802C17.7408 34.4872 17.4839 35.0154 17.3268 35.3437L17.1127 35.2295C17.2555 34.9154 17.3554 34.6728 17.3697 34.5158C17.3982 34.3445 17.3554 34.2017 17.2412 34.0733C17.127 33.9448 16.9414 33.8163 16.6559 33.6593L10.7605 30.576L10.4608 31.1327C10.2324 31.5609 10.1325 31.9035 10.1467 32.1747C10.161 32.446 10.2752 32.6886 10.4893 32.9027C10.7034 33.1169 11.0603 33.4023 11.5742 33.7307L11.4457 33.9733C11.2602 33.8591 10.9747 33.7021 10.6321 33.5165Z" fill="#292F36"/>
<path d="M20.7105 17.115C20.9531 16.8723 21.153 16.644 21.2957 16.4727L21.467 16.644C21.3814 16.7724 21.3385 16.958 21.3528 17.1721C21.3671 17.3862 21.4242 17.686 21.5384 18.0429L22.8374 21.9113L24.3505 23.4101C24.5646 23.6099 24.7216 23.7527 24.8501 23.8098C24.9786 23.8669 25.107 23.8669 25.2355 23.8098C25.364 23.7527 25.521 23.6242 25.7351 23.4386L25.9064 23.6099C25.6352 23.8526 25.2783 24.1952 24.8358 24.6377C24.3648 25.1088 24.0222 25.4799 23.808 25.7226L23.6368 25.5513C23.8223 25.3371 23.9508 25.1801 24.0079 25.0517C24.065 24.9232 24.065 24.7947 23.9936 24.6662C23.9365 24.5378 23.7938 24.3665 23.5939 24.1666L22.3378 22.9247L17.5701 21.5258C17.2846 21.4402 17.0705 21.4116 16.9277 21.4259C16.785 21.4402 16.685 21.483 16.6137 21.5544L16.4424 21.3831C16.6708 21.1833 16.9277 20.9549 17.1847 20.6836C17.7128 20.1412 18.0982 19.7558 18.3123 19.4989L18.4836 19.6702C18.0982 20.0556 18.0126 20.3553 18.2267 20.5694C18.3123 20.6551 18.4265 20.7122 18.5978 20.7693L22.609 22.0112L21.5527 18.8565C21.3956 18.3997 21.2386 18.0857 21.0673 17.9287C20.9103 17.7716 20.739 17.7288 20.5534 17.7859C20.3679 17.843 20.1538 17.9858 19.8968 18.2284L19.7255 18.0571C20.0681 17.7431 20.3822 17.429 20.7105 17.115Z" fill="#292F36"/>
<path d="M29.346 11.3625C29.2603 11.4624 29.2175 11.5909 29.246 11.7336C29.2746 11.8764 29.346 12.0762 29.4887 12.3332L32.2437 17.4434C32.3864 17.7004 32.5006 17.8717 32.6148 17.9716C32.7148 18.0715 32.8432 18.1001 32.9717 18.0858C33.1002 18.0715 33.3 17.9859 33.5427 17.8574L34.2992 17.4434C34.7275 17.215 35.0272 16.9724 35.1843 16.7297C35.3413 16.487 35.3984 16.2158 35.3555 15.8875C35.3127 15.5592 35.1843 15.1452 34.9559 14.6028L35.1985 14.4743C35.2984 14.7027 35.4412 14.9882 35.6268 15.3308C35.8409 15.7162 36.0978 16.1445 36.4119 16.6155C35.9408 16.8439 35.1414 17.2579 34.0423 17.8574C32.729 18.5711 31.7298 19.1136 31.0732 19.499L30.959 19.2991C31.2017 19.1564 31.373 19.0279 31.4586 18.928C31.5442 18.8281 31.5871 18.6996 31.5585 18.5569C31.53 18.4141 31.4586 18.2143 31.3159 17.9573L28.5323 12.847C28.3896 12.5901 28.2754 12.4188 28.1612 12.3189C28.0613 12.219 27.9328 12.1904 27.8043 12.2047C27.6616 12.219 27.476 12.2903 27.2191 12.4188L27.1191 12.2047C27.4189 12.0762 27.8614 11.8478 28.4467 11.5195C29.0034 11.2197 29.4316 10.9771 29.7314 10.7915L29.8456 10.9913C29.6029 11.1341 29.4459 11.2626 29.346 11.3625Z" fill="#292F36"/>
<path d="M46.7328 12.2761C46.8185 12.7043 46.9469 13.1897 47.104 13.7321C46.5758 13.8178 45.7051 13.9748 44.4774 14.2174C43.0072 14.5029 41.908 14.7313 41.1515 14.9026L41.1087 14.6742C41.3799 14.6029 41.5797 14.5458 41.6939 14.4601C41.8081 14.3887 41.8795 14.2745 41.8938 14.1461C41.908 14.0033 41.8938 13.7892 41.8367 13.5037L40.7232 7.80817C40.6661 7.52268 40.6091 7.32284 40.5234 7.19437C40.4378 7.0659 40.3521 6.99452 40.2094 6.98025C40.0809 6.9517 39.8668 6.96597 39.5956 7.0088L39.5527 6.78041C40.3093 6.65194 41.4227 6.45209 42.8787 6.1666C44.0064 5.93821 44.8058 5.78119 45.2625 5.66699C45.3054 6.18088 45.3767 6.63766 45.4481 7.03735C45.5052 7.33711 45.5623 7.56551 45.6194 7.7368L45.3625 7.7939C45.2055 7.30856 45.0627 6.9517 44.9342 6.72331C44.8058 6.49492 44.6202 6.35217 44.4061 6.2808C44.1777 6.20942 43.8779 6.20942 43.464 6.29507L42.5076 6.48064C42.2363 6.53774 42.0365 6.59484 41.9223 6.66621C41.8081 6.73758 41.7367 6.8375 41.7082 6.98025C41.6939 7.12299 41.7082 7.33711 41.7653 7.6226L42.2934 10.3348L43.05 10.1777C43.4354 10.1064 43.6638 9.93508 43.7494 9.67814C43.8351 9.4212 43.8636 9.17853 43.8494 8.93586C43.8351 8.69319 43.8208 8.53617 43.8208 8.4648L44.0778 8.4077C44.1206 8.79312 44.1777 9.14998 44.2491 9.49257L44.3633 10.035C44.4346 10.4204 44.5631 10.9628 44.7487 11.648L44.4917 11.7051C44.4774 11.648 44.4204 11.4767 44.3204 11.1627C44.2205 10.8486 44.0778 10.6345 43.8636 10.5061C43.6495 10.3776 43.4069 10.349 43.0928 10.4061L42.3363 10.5489L42.8787 13.3039C42.9358 13.5894 42.9929 13.7892 43.0643 13.9177C43.1356 14.0319 43.2356 14.1032 43.3783 14.1318C43.5068 14.1461 43.7209 14.1318 43.9921 14.0747L44.8343 13.9034C45.3054 13.8035 45.6622 13.675 45.8906 13.5037C46.119 13.3324 46.2475 13.0898 46.3046 12.79C46.3617 12.4902 46.3617 12.062 46.3189 11.5053L46.5758 11.4482C46.6186 11.6623 46.6615 11.9335 46.7328 12.2761Z" fill="#292F36"/>
<path d="M37.1113 66.7907C36.4547 65.9057 35.8837 64.935 35.3841 63.8644C34.8845 62.7938 34.4848 61.709 34.185 60.5956C33.5284 55.6994 33.5141 50.946 34.1279 46.3353C34.7417 41.7246 35.7409 37.1853 37.1113 32.7031C37.3397 32.2035 37.8393 31.9608 38.6101 31.9608C39.381 31.9608 40.1375 32.1321 40.9083 32.4747C41.6792 32.8173 42.3072 33.2741 42.8068 33.8451C43.3065 34.416 43.4207 35.0156 43.1494 35.6294C42.7212 36.543 42.3072 37.7848 41.8933 39.3265C41.4793 40.8824 41.0654 42.5954 40.6942 44.4653C40.3088 46.3353 39.9805 48.3052 39.695 50.3464C39.4095 52.3877 39.1954 54.3576 39.0669 56.2275C38.9384 58.0975 38.9099 59.7962 38.9813 61.3093C39.0526 62.8224 39.281 64.0214 39.6664 64.8922C41.465 62.4798 43.1066 59.9817 44.6054 57.3981C46.1043 54.8144 47.5032 52.2021 48.8164 49.5328C50.1297 46.8777 51.3858 44.1941 52.5706 41.4677C53.7554 38.7555 54.9259 36.0719 56.0679 33.4311C56.6389 32.0893 57.2099 30.6761 57.7666 29.1916C58.3233 27.6927 59.0513 26.4223 59.9791 25.3517C60.3645 25.0091 60.6643 24.8949 60.8641 25.0091C61.0782 25.1233 61.221 25.3374 61.2924 25.6658C61.3637 25.9941 61.4066 26.3367 61.4066 26.6935C61.4066 27.0504 61.4066 27.3359 61.4066 27.5215C61.1353 29.2772 60.907 31.0187 60.7214 32.7459C60.5358 34.4731 60.1219 36.129 59.5223 37.742C58.5231 40.2686 57.5096 42.7667 56.4533 45.2647C55.397 47.7485 54.2693 50.2037 53.0702 52.6161C51.8712 55.0285 50.5579 57.3695 49.1733 59.6392C47.7744 61.9231 46.2613 64.0928 44.6054 66.1483C43.3065 67.7899 42.0075 68.6607 40.737 68.7606C39.4095 68.8748 38.2247 68.2039 37.1113 66.7907Z" fill="#292F36" stroke="white" stroke-miterlimit="10"/>
<path d="M60.75 60.3103C59.9792 59.2397 59.2226 58.1548 58.4804 57.0414C57.7381 55.928 57.3669 54.7146 57.3669 53.3728C57.3669 51.8883 57.7952 50.4751 58.6516 49.1476C59.5081 47.8343 60.4931 46.7637 61.6065 45.9644C62.0633 45.6646 62.5343 45.4076 63.0054 45.2221C63.4764 45.0365 63.9903 45.0508 64.5328 45.2792C64.7611 45.3934 65.0038 45.479 65.2465 45.5361C65.4891 45.5932 65.7175 45.6646 65.9031 45.736C66.0887 45.8073 66.3028 45.9215 66.5312 46.0786C66.7596 46.2356 66.8738 46.4354 66.8738 46.7066C66.8738 47.7772 66.9023 48.648 66.9594 49.3189C67.0165 49.9898 67.1022 50.5608 67.2164 51.0461C67.3306 51.5314 67.4448 51.9454 67.559 52.3022C67.6732 52.6734 67.7873 53.0588 67.9015 53.4728C67.9729 53.8582 67.9586 54.1865 67.8444 54.4434C67.7303 54.7146 67.4448 54.7432 66.988 54.5576C66.1458 54.2579 65.5177 53.6441 65.118 52.7162C64.7183 51.7884 64.4186 50.9604 64.233 50.1896C64.1902 50.0326 64.1045 49.7757 63.9475 49.3902C63.7905 49.0048 63.7048 48.7336 63.662 48.5909C63.3622 48.5195 62.9911 48.6194 62.5771 48.9049C62.1632 49.1904 61.7778 49.5901 61.4637 50.0754C61.1354 50.575 60.9213 51.146 60.8356 51.8026C60.7357 52.4593 60.8642 53.1016 61.2068 53.7583C61.3638 53.9866 61.5779 54.2721 61.8634 54.5862C62.1489 54.9145 62.4344 55.2428 62.7199 55.5854C63.0054 55.928 63.2909 56.2706 63.5764 56.5846C63.8619 56.8986 64.1045 57.1699 64.2901 57.3554C64.5185 57.5838 64.6755 57.7123 64.7469 57.7266C64.8182 57.7408 65.0181 57.698 65.3179 57.5838C65.7033 57.3983 66.2885 57.1413 67.0736 56.8416C67.8587 56.5418 68.6866 56.2277 69.5431 55.928C70.3996 55.6282 71.2275 55.3713 72.0126 55.1572C72.7977 54.943 73.3972 54.8431 73.8255 54.8431C74.0967 54.8431 74.2823 54.943 74.3965 55.1286C74.5107 55.2428 74.4964 55.3998 74.3394 55.5854C74.1823 55.771 73.9825 55.9708 73.7398 56.1564C73.4972 56.3419 73.2259 56.5132 72.969 56.6703C72.6978 56.8273 72.5265 56.9129 72.4551 56.9558C71.7985 57.3412 70.9848 57.7694 69.9856 58.2547C68.9864 58.7258 68.1299 59.1969 67.4019 59.6536C67.3306 59.725 67.1878 59.8107 66.9737 59.882C66.7596 59.9534 66.6026 60.039 66.4884 60.1104C66.9452 61.1382 67.2735 62.0375 67.459 62.7798C67.6446 63.522 67.716 64.2358 67.6589 64.9352C67.6018 65.6204 67.459 66.3198 67.2306 67.0336C67.0023 67.7473 66.6882 68.5609 66.3171 69.4745C65.7746 70.3595 65.2322 71.2017 64.6755 72.0011C64.1188 72.8005 63.505 73.5285 62.8055 74.1851C62.1204 74.8417 61.3638 75.3556 60.5644 75.7268C59.7651 76.1122 58.88 76.2977 57.9236 76.2977C57.3812 76.2977 56.8673 76.2264 56.3677 76.0979C55.8681 75.9694 55.4541 75.6839 55.1116 75.27C54.2265 74.3136 53.7412 73.2715 53.627 72.1439C53.5128 71.0162 53.6127 69.9028 53.9125 68.7893C54.1409 68.1042 54.4264 67.4761 54.769 66.8908C55.6112 65.4348 56.539 64.2072 57.5525 63.1937C58.5803 62.1945 59.6366 61.2238 60.75 60.3103ZM62.7056 62.894C62.2774 63.3222 61.7064 63.9217 60.9784 64.7068C60.2504 65.4919 59.5795 66.3484 58.9371 67.262C58.3091 68.1755 57.7952 69.0891 57.3955 69.9884C56.9958 70.8877 56.8959 71.6585 57.0814 72.3151C57.8523 71.9726 58.6374 71.4016 59.4367 70.6165C60.2361 69.8314 60.9498 68.9749 61.5637 68.0328C62.1775 67.0907 62.6057 66.1628 62.8484 65.2493C63.091 64.3214 63.0482 63.5363 62.7056 62.894Z" fill="#292F36" stroke="white" stroke-miterlimit="10"/>
<path d="M51.4436 83.5488C33.5862 83.5488 19.0547 69.0174 19.0547 51.1599C19.0547 33.3025 33.5862 18.771 51.4436 18.771C69.3011 18.771 83.8325 33.3025 83.8325 51.1599C83.8325 69.0174 69.3011 83.5488 51.4436 83.5488ZM51.4436 20.1984C34.3713 20.1984 20.4821 34.0876 20.4821 51.1599C20.4821 68.2323 34.3713 82.1214 51.4436 82.1214C68.516 82.1214 82.4051 68.2323 82.4051 51.1599C82.4051 34.0876 68.516 20.1984 51.4436 20.1984Z" fill="#292F36"/>
</svg>
